<?xml version="1.0" encoding="UTF-8"?>
<svg version="1.1" id="background" xmlns="http://www.w3.org/2000/svg" xmlns:xlink="http://www.w3.org/1999/xlink" width="700mm" height="467mm" viewBox="0 0 700 467" xml:space="preserve">
  <g>
    <path fill="#FFFFFF" fill-rule="evenodd" stroke="none" d="M0,45C0,20.147 20.147,0 45,0L655,0C679.852,0 700,20.147 700,45L700,422C700,446.852 679.852,467 655,467L45,467C20.147,467 0,446.852 0,422L0,45Z"/>
    <path fill="black" fill-rule="evenodd" stroke="none" d="M10,45C10,25.670 25.670,10 45,10L655,10C674.329,10 690,25.670 690,45L690,422C690,441.329 674.329,457 655,457L45,457C25.670,457 10,441.329 10,422L10,45ZM0,45C0,20.147 20.147,0 45,0L655,0C679.852,0 700,20.147 700,45L700,422C700,446.852 679.852,467 655,467L45,467C20.147,467 0,446.852 0,422L0,45Z"/>
    <path fill="black" fill-rule="evenodd" stroke="none" d="M153.098,217.498C140.971,217.498 131.731,210.856 131.731,204.937L131.731,147.187C131.731,139.391 139.527,136.070 146.746,132.750L175.043,60.562C178.075,53.199 183.706,50.889 192.657,50.889L323.750,50.889C333.423,50.889 340.208,54.065 342.518,60.562L372.693,132.750C379.334,137.081 385.975,140.546 385.975,147.187L385.975,204.937C385.975,210.279 376.735,217.498 367.062,217.498ZM161.761,132.750L185.294,75C187.604,69.369 190.058,66.626 193.812,66.626L323.750,66.481C327.648,66.626 330.535,69.225 332.845,75L355.945,132.750ZM172.589,275.536C162.771,275.536 153.098,268.606 153.098,257.634L153.098,226.882L192.657,226.882L192.657,258.067C192.657,268.895 182.118,275.536 172.589,275.536ZM345.117,275.536C335.299,275.536 325.771,268.606 325.771,257.634L325.771,226.882L365.185,226.882L365.185,258.067C365.185,268.895 354.790,275.536 345.117,275.536ZM172.156,148.631C161.039,148.631 151.943,157.726 151.943,168.843C151.943,179.960 161.039,189.056 172.156,189.056C183.273,189.056 192.368,179.960 192.368,168.843C192.368,157.726 183.273,148.631 172.156,148.631ZM345.406,148.631C334.289,148.631 325.193,157.726 325.193,168.843C325.193,179.960 334.289,189.056 345.406,189.056C356.523,189.056 365.618,179.960 365.618,168.843C365.618,157.726 356.523,148.631 345.406,148.631Z"/>
    <path fill="black" fill-rule="evenodd" stroke="none" d="M587.343,210.625L587.343,200.125L617.093,200.125C620.156,200.125 623,197.281 623,194.218C623,191.375 620.156,188.312 617.093,188.312L587.343,188.312L587.343,161.625L617.093,161.625C620.156,161.625 623,158.781 623,155.718C623,152.656 620.156,149.812 617.093,149.812L587.343,149.812L587.343,139.531L545.999,139.531L525.218,158.781L525.218,149.812L513.406,149.812L513.406,169.062C494.375,169.062 486.718,146.750 460.031,146.750C422.843,146.750 417.156,194.218 385.874,194.218L385.874,206.031C422.843,206.031 431.374,158.781 460.031,158.781C479.718,158.781 486.718,180.875 513.406,180.875L513.406,200.125L525.218,200.125L525.218,191.375L545.999,210.625Z"/>
    <path fill="black" fill-rule="evenodd" stroke="none" d="M87.548,310.092L107.152,310.092L107.152,342.429C108.494,342.429 109.788,342.264 111.035,341.911C112.283,341.558 113.507,341.088 114.707,340.523C115.884,339.934 117.013,339.252 118.096,338.475C119.178,337.675 120.238,336.804 121.273,335.863C122.332,334.898 123.368,333.886 124.380,332.850C125.392,331.791 126.380,330.732 127.345,329.626C128.286,328.520 129.275,327.437 130.263,326.355C131.252,325.272 132.217,324.213 133.135,323.178C134.759,321.554 136.524,319.836 138.406,318.071C140.289,316.305 142.337,314.634 144.549,313.058C146.761,311.481 149.138,310.139 151.657,309.010C154.198,307.880 156.905,307.150 159.800,306.868L162.859,324.566C160.529,324.684 158.552,325.037 156.928,325.649C155.305,326.261 153.822,327.084 152.480,328.096C151.162,329.108 149.892,330.285 148.691,331.580C147.515,332.898 146.220,334.310 144.808,335.816C143.655,337.087 142.572,338.428 141.537,339.864C140.525,341.276 139.466,342.641 138.312,343.912C137.183,345.206 135.935,346.336 134.570,347.324C133.205,348.313 131.605,348.972 129.746,349.325C131.181,349.325 132.593,349.513 133.911,349.890C135.253,350.266 136.524,350.808 137.700,351.490C138.901,352.196 140.030,353.020 141.066,353.985C142.125,354.950 143.137,355.985 144.125,357.115C145.114,358.245 146.055,359.468 146.950,360.786C147.844,362.081 148.738,363.422 149.609,364.787C150.480,366.152 151.351,367.564 152.174,368.977C153.022,370.412 153.845,371.777 154.669,373.119C155.257,374.107 155.846,375.166 156.458,376.296C157.070,377.426 157.682,378.602 158.317,379.826C158.976,381.050 159.611,382.321 160.247,383.615C160.882,384.933 161.541,386.228 162.200,387.499C162.883,388.769 163.542,390.064 164.201,391.335C164.883,392.606 165.589,393.853 166.342,395.077C167.096,396.301 167.849,397.477 168.625,398.560C169.378,399.666 170.155,400.702 170.955,401.620L144.808,401.620C143.702,399.360 142.690,397.195 141.725,395.171C140.760,393.147 139.795,391.099 138.854,389.028C137.889,386.957 136.877,384.839 135.841,382.674C134.782,380.485 133.605,378.179 132.264,375.731C131.511,374.390 130.781,373.095 130.075,371.848C129.393,370.600 128.663,369.424 127.910,368.271C127.157,367.141 126.357,366.082 125.509,365.046C124.662,364.034 123.768,363.116 122.803,362.269C121.838,361.422 120.826,360.692 119.767,360.033C118.684,359.398 117.507,358.857 116.237,358.433C114.942,357.986 113.554,357.680 112.047,357.515C111.294,357.468 110.494,357.421 109.694,357.421C108.870,357.421 108.023,357.468 107.152,357.515L107.152,401.620L87.548,401.620L87.548,310.092ZM233.887,325.178C231.580,325.178 229.345,325.602 227.179,326.473C225.038,327.367 223.061,328.591 221.249,330.191C219.460,331.791 217.836,333.698 216.424,335.886C214.988,338.099 213.811,340.523 212.894,343.135L212.894,368.576C213.811,371.189 214.988,373.613 216.424,375.825C217.836,378.038 219.460,379.920 221.249,381.521C223.061,383.121 225.038,384.368 227.179,385.239C229.345,386.110 231.580,386.534 233.887,386.534C235.534,386.534 237.088,386.345 238.594,385.922C240.124,385.522 241.559,384.933 242.924,384.157C244.289,383.356 245.584,382.415 246.831,381.309C248.102,380.203 249.232,378.955 250.291,377.567C251.326,376.178 252.268,374.648 253.115,373.025C253.962,371.401 254.668,369.683 255.256,367.847C255.845,366.011 256.268,364.105 256.551,362.081C256.857,360.080 256.998,358.009 256.998,355.868C256.998,353.773 256.857,351.725 256.551,349.701C256.268,347.701 255.845,345.771 255.256,343.912C254.668,342.053 253.962,340.311 253.115,338.687C252.268,337.063 251.326,335.557 250.291,334.145C249.232,332.756 248.102,331.509 246.831,330.403C245.584,329.297 244.289,328.355 242.924,327.579C241.559,326.778 240.124,326.190 238.594,325.790C237.088,325.390 235.534,325.178 233.887,325.178L233.887,325.178ZM212.894,440.758L193.265,440.758L193.265,310.186L209.669,310.186L212.894,320.024C214.565,318.000 216.353,316.164 218.213,314.540C220.072,312.916 221.978,311.528 223.955,310.398C225.932,309.268 227.909,308.398 229.886,307.786C231.863,307.174 233.816,306.868 235.722,306.868C238.641,306.868 241.489,307.197 244.266,307.880C247.066,308.539 249.726,309.504 252.244,310.751C254.762,311.999 257.163,313.505 259.446,315.270C261.705,317.059 263.800,319.035 265.753,321.248C267.706,323.460 269.424,325.884 270.954,328.497C272.460,331.109 273.755,333.886 274.814,336.804C275.897,339.746 276.720,342.806 277.309,346.006C277.897,349.207 278.179,352.479 278.179,355.868C278.179,359.233 277.897,362.504 277.309,365.705C276.720,368.906 275.897,371.966 274.814,374.907C273.755,377.849 272.460,380.626 270.954,383.239C269.424,385.851 267.706,388.252 265.753,390.464C263.800,392.676 261.705,394.653 259.446,396.442C257.163,398.207 254.762,399.713 252.244,400.961C249.726,402.208 247.066,403.173 244.266,403.855C241.489,404.514 238.641,404.844 235.722,404.844C233.816,404.844 231.863,404.538 229.886,403.926C227.909,403.314 225.932,402.443 223.955,401.314C221.978,400.184 220.072,398.795 218.213,397.171C216.353,395.547 214.565,393.712 212.894,391.688L212.894,440.758ZM342.146,404.844C339.252,404.844 336.404,404.514 333.603,403.855C330.826,403.173 328.167,402.208 325.625,400.961C323.107,399.713 320.706,398.207 318.447,396.442C316.164,394.653 314.069,392.676 312.163,390.464C310.233,388.252 308.515,385.851 306.985,383.239C305.432,380.626 304.138,377.849 303.055,374.907C301.972,371.966 301.149,368.906 300.560,365.705C299.995,362.504 299.689,359.233 299.689,355.868C299.689,352.479 299.995,349.184 300.560,345.959C301.149,342.735 301.972,339.676 303.055,336.757C304.138,333.862 305.432,331.085 306.985,328.449C308.515,325.790 310.233,323.366 312.163,321.177C314.069,318.965 316.164,316.964 318.447,315.199C320.706,313.434 323.107,311.904 325.625,310.657C328.167,309.410 330.826,308.468 333.603,307.833C336.404,307.197 339.252,306.868 342.146,306.868C345.112,306.868 347.983,307.197 350.737,307.833C353.490,308.468 356.150,309.410 358.668,310.657C361.186,311.904 363.610,313.434 365.893,315.199C368.200,316.964 370.294,318.965 372.224,321.177C374.130,323.366 375.872,325.790 377.402,328.449C378.955,331.085 380.250,333.862 381.332,336.757C382.415,339.676 383.215,342.735 383.780,345.959C384.321,349.184 384.603,352.479 384.603,355.868C384.603,359.233 384.321,362.504 383.780,365.705C383.215,368.906 382.415,371.966 381.332,374.907C380.250,377.849 378.955,380.626 377.402,383.239C375.872,385.851 374.130,388.252 372.224,390.464C370.294,392.676 368.200,394.653 365.893,396.442C363.610,398.207 361.186,399.713 358.668,400.961C356.150,402.208 353.490,403.173 350.737,403.855C347.983,404.514 345.112,404.844 342.146,404.844L342.146,404.844ZM342.146,388.534C343.723,388.558 345.253,388.322 346.759,387.852C348.289,387.381 349.725,386.745 351.090,385.922C352.455,385.122 353.749,384.110 354.973,382.933C356.173,381.732 357.303,380.391 358.315,378.908C359.327,377.426 360.268,375.825 361.116,374.084C361.939,372.342 362.669,370.483 363.234,368.553C363.822,366.600 364.269,364.552 364.599,362.434C364.905,360.316 365.069,358.127 365.069,355.868C365.069,353.585 364.905,351.396 364.599,349.278C364.269,347.160 363.822,345.112 363.234,343.135C362.669,341.158 361.939,339.299 361.116,337.557C360.268,335.816 359.327,334.216 358.315,332.756C357.303,331.297 356.173,329.979 354.973,328.802C353.749,327.602 352.455,326.590 351.090,325.743C349.725,324.896 348.289,324.260 346.759,323.813C345.253,323.389 343.723,323.178 342.146,323.178C340.570,323.178 339.063,323.389 337.581,323.813C336.098,324.260 334.662,324.896 333.297,325.743C331.932,326.590 330.638,327.602 329.414,328.802C328.190,329.979 327.061,331.297 326.025,332.756C324.966,334.216 324.025,335.816 323.201,337.557C322.354,339.299 321.648,341.158 321.106,343.135C320.541,345.112 320.118,347.160 319.788,349.278C319.459,351.396 319.318,353.585 319.318,355.868C319.318,358.127 319.459,360.316 319.788,362.434C320.118,364.552 320.541,366.600 321.106,368.553C321.648,370.483 322.354,372.342 323.201,374.084C324.025,375.825 324.966,377.426 326.025,378.908C327.061,380.391 328.190,381.732 329.414,382.933C330.638,384.110 331.932,385.122 333.297,385.922C334.662,386.745 336.098,387.381 337.581,387.852C339.063,388.322 340.570,388.558 342.146,388.534L342.146,388.534ZM413.578,310.092L433.206,310.092L456.035,355.868L478.958,310.092L498.492,310.092L508.236,401.620L488.631,401.620L481.665,336.240L456.035,391.782L430.406,336.240L423.439,401.620L403.811,401.620L413.578,310.092ZM569.994,404.844C567.100,404.844 564.252,404.514 561.451,403.855C558.674,403.173 556.015,402.231 553.473,401.008C550.955,399.784 548.554,398.301 546.295,396.512C544.012,394.747 541.917,392.747 540.011,390.511C538.081,388.275 536.363,385.851 534.833,383.239C533.280,380.626 531.986,377.849 530.903,374.954C529.820,372.036 528.997,368.977 528.408,365.752C527.843,362.528 527.537,359.233 527.537,355.868C527.537,352.479 527.843,349.207 528.408,346.006C528.997,342.806 529.820,339.746 530.903,336.804C531.986,333.886 533.280,331.109 534.833,328.497C536.363,325.884 538.081,323.460 540.011,321.248C541.917,319.035 544.012,317.059 546.295,315.270C548.554,313.505 550.955,311.999 553.473,310.751C556.015,309.504 558.674,308.539 561.451,307.880C564.252,307.197 567.100,306.868 569.994,306.868C572.960,306.868 575.831,307.197 578.585,307.880C581.338,308.539 583.998,309.504 586.516,310.751C589.034,311.999 591.435,313.505 593.718,315.270C595.977,317.059 598.072,319.035 599.978,321.248C601.908,323.460 603.626,325.884 605.179,328.497C606.709,331.109 608.027,333.886 609.086,336.804C610.169,339.746 610.992,342.806 611.581,346.006C612.169,349.207 612.451,352.479 612.451,355.868C612.451,356.974 612.428,358.056 612.357,359.163C612.310,360.269 612.216,361.351 612.098,362.387L547.589,362.387C548.107,366.105 549.072,369.565 550.437,372.766C551.802,375.966 553.473,378.720 555.450,381.050C557.427,383.380 559.663,385.216 562.157,386.534C564.652,387.875 567.264,388.558 569.994,388.534C571.924,388.558 573.760,388.228 575.525,387.593C577.314,386.957 578.985,386.039 580.538,384.886C582.115,383.733 583.574,382.321 584.892,380.650C586.234,379.002 587.434,377.167 588.469,375.119L604.685,384.180C602.708,387.334 600.472,390.158 597.977,392.676C595.483,395.218 592.753,397.383 589.787,399.172C586.822,400.984 583.692,402.373 580.373,403.361C577.055,404.350 573.595,404.844 569.994,404.844L569.994,404.844ZM548.201,346.101L591.788,346.101C591.082,342.782 590.023,339.723 588.611,336.946C587.175,334.145 585.528,331.744 583.645,329.697C581.738,327.673 579.644,326.096 577.314,324.966C574.984,323.813 572.560,323.248 569.994,323.248C567.429,323.248 565.005,323.813 562.675,324.966C560.345,326.096 558.251,327.673 556.344,329.697C554.461,331.744 552.814,334.145 551.425,336.946C550.037,339.723 548.954,342.782 548.201,346.101L548.201,346.101Z"/>
  </g>
</svg>
