<?xml version="1.0" encoding="UTF-8"?>
<svg xmlns="http://www.w3.org/2000/svg" width="300" height="700" viewBox="0 0 300 700">
<title>6.16.1 Стоп-линия</title>
<rect width="300" height="700" rx="45" ry="45" style="fill: #fff;"/>
<rect x="1" y="1" width="298" height="698" rx="44" ry="44" style="fill: none; stroke: #000; stroke-miterlimit: 10; stroke-width: 2px;"/>
<path d="M255,10H45c-19.33,0-35,15.67-35,35v610c0,19.33,15.67,35,35,35h210c19.33,0,35-15.67,35-35V45c0-19.33-15.67-35-35-35ZM280,655c0,13.81-11.19,25-25,25H45c-13.81,0-25-11.19-25-25V45c0-13.81,11.19-25,25-25h210c13.81,0,25,11.19,25,25v610Z" style="fill-rule: evenodd;"/>
<g>
  <path d="M152.508,52.56c-2.471,0-4.866.454-7.136,1.387-2.269.933-4.387,2.219-6.354,3.833-1.967,1.614-3.757,3.555-5.371,5.799-1.614,2.245-3.102,4.691-4.438,7.338-1.337,2.648-2.522,5.397-3.53,8.296-1.034,2.9-1.892,5.825-2.522,8.776-.656,2.975-1.185,5.9-1.563,8.775-.353,2.9-.555,5.673-.555,8.271,0,2.622.202,5.371.555,8.27.378,2.9.907,5.825,1.563,8.776.63,2.975,1.488,5.9,2.522,8.775,1.008,2.9,2.193,5.673,3.53,8.321,1.336,2.648,2.824,5.094,4.438,7.338s3.404,4.16,5.371,5.774c1.967,1.639,4.085,2.9,6.354,3.833,2.27.933,4.665,1.412,7.136,1.412,3.556,0,6.758-.655,9.583-1.967,2.824-1.311,5.421-3.278,7.791-5.875,2.371-2.622,4.564-5.901,6.556-9.859,1.993-3.959,3.884-8.549,5.674-13.768l21.308,9.884c-.681,2.245-1.564,4.59-2.623,7.01-1.059,2.421-2.295,4.867-3.732,7.288-1.437,2.42-3.051,4.816-4.867,7.136-1.79,2.345-3.782,4.564-5.925,6.632-2.144,2.093-4.464,4.009-6.96,5.799-2.471,1.765-5.119,3.304-7.918,4.615-2.824,1.311-5.774,2.32-8.926,3.051-3.152.706-6.455,1.059-9.961,1.059-3.53,0-7.06-.479-10.54-1.437-3.48-.984-6.884-2.345-10.187-4.161-3.303-1.815-6.455-4.009-9.481-6.581-3.026-2.597-5.825-5.523-8.448-8.826-2.622-3.303-4.992-6.909-7.111-10.792-2.092-3.884-3.933-8.044-5.446-12.457-1.538-4.438-2.698-9.103-3.505-14.02s-1.211-9.986-1.211-15.23c0-5.22.404-10.289,1.211-15.206s1.967-9.607,3.505-14.02c1.513-4.413,3.354-8.573,5.446-12.457,2.119-3.908,4.489-7.489,7.061-10.792,2.597-3.303,5.396-6.254,8.397-8.826,3.026-2.597,6.203-4.791,9.481-6.581,3.303-1.815,6.708-3.202,10.238-4.161,3.505-.958,7.06-1.462,10.59-1.462,2.875,0,5.674.277,8.423.807,2.723.529,5.371,1.311,7.943,2.32,2.546,1.034,5.018,2.269,7.413,3.706,2.396,1.438,4.69,3.077,6.909,4.943s4.287,3.908,6.254,6.127c1.967,2.194,3.808,4.59,5.522,7.136,1.715,2.547,3.253,5.22,4.665,8.044,1.387,2.799,2.648,5.724,3.783,8.775l-21.308,10.642c-1.79-5.245-3.656-9.835-5.598-13.768-1.916-3.959-4.034-7.237-6.354-9.86-2.295-2.622-4.867-4.589-7.742-5.9-2.874-1.286-6.152-1.942-9.91-1.942h0Z" style="fill-rule: evenodd;"/>
  <polygon points="162.28 338.395 137.719 338.395 137.719 219.325 97.55 219.325 97.55 198.295 202.449 198.295 202.449 219.325 162.28 219.325 162.28 338.395" style="fill-rule: evenodd;"/>
  <path d="M204.88,416.85c-.75-4.81-1.81-9.43-3.23-13.82-1.38-4.38-3.12-8.54-5.16-12.45-2.07-3.9399-4.37-7.5699-6.89-10.9-2.52-3.32-5.27-6.3-8.24-8.95-3.01-2.65-6.18-4.91-9.54-6.78-3.37-1.8701-6.86-3.3-10.51-4.29-3.63-1.01-7.39-1.51-11.25-1.51s-7.64.5-11.29,1.51c-3.69.99-7.19,2.42-10.52,4.29-3.33,1.87-6.5,4.1299-9.53,6.78-3.03,2.65-5.8,5.63-8.3199,8.95-2.52,3.33-4.79,6.96-6.81,10.9-2.02,3.91-3.76,8.07-5.17,12.45-1.44,4.39-2.52,9.01-3.28,13.82-.75,4.84-1.13,9.76-1.13,14.8,0,5.12.38,10.07,1.13,14.86.76,4.79,1.84,9.38,3.28,13.7599,1.41,4.42,3.15,8.55,5.17,12.4901,2.02,3.93,4.29,7.54,6.81,10.86,2.52,3.36,5.29,6.33,8.3199,8.98,3.03,2.65,6.2,4.89,9.53,6.79,3.33,1.86,6.83,3.27,10.52,4.28,3.65.98,7.43,1.49,11.29,1.49s7.62-.51,11.25-1.49c3.65-1.01,7.14-2.42,10.51-4.28,3.36-1.9,6.53-4.14,9.54-6.79,2.97-2.65,5.72-5.62,8.24-8.98,2.52-3.32,4.82-6.93,6.89-10.86,2.04-3.94,3.78-8.07,5.16-12.4901,1.42-4.3799,2.48-8.97,3.23-13.7599.73-4.79,1.11-9.7401,1.11-14.86,0-5.04-.38-9.96-1.11-14.8ZM180.88,442.22c-.43,3.43-1.04,6.71-1.82,9.86-.78,3.13-1.74,6.1-2.9,8.9-1.16,2.8-2.45,5.4-3.8799,7.82-1.44,2.39-2.98,4.54-4.67,6.43s-3.45,3.5-5.32,4.81c-1.86,1.32-3.83,2.32-5.87,3.03-2.07.73-4.19,1.08-6.36,1.08-2.19,0-4.31-.35-6.35-1.08-2.07-.71-4.04-1.71-5.93-3.03-1.91-1.31-3.7-2.92-5.3701-4.81-1.69-1.89-3.25-4.04-4.66-6.43-1.44-2.42-2.73-5.02-3.84-7.82-1.1299-2.8-2.09-5.77-2.9-8.9-.8-3.15-1.41-6.43-1.81-9.86-.41-3.43-.61-6.96-.61-10.57,0-3.6.2-7.11.61-10.54.4-3.43,1.01-6.7,1.81-9.85.81-3.16,1.77-6.13,2.9-8.9301,1.11-2.8,2.4-5.4,3.84-7.79,1.41-2.4,2.97-4.54,4.66-6.46,1.67-1.89,3.46-3.48,5.3701-4.79,1.89-1.31,3.86-2.32,5.93-3.05,2.04-.71,4.16-1.06,6.35-1.06,2.17,0,4.29.35,6.36,1.06,2.04.73,4.01,1.74,5.87,3.05,1.87,1.31,3.63,2.9,5.32,4.79,1.69,1.92,3.23,4.0601,4.67,6.46,1.43,2.39,2.72,4.99,3.8799,7.79,1.16,2.8,2.1201,5.77,2.9,8.9301.78,3.15,1.39,6.42,1.82,9.85.42,3.43.65,6.94.65,10.54,0,3.61-.23,7.14-.65,10.57Z" style="fill-rule: evenodd;"/>
  <polygon points="100.967 524.915 199.032 524.915 199.032 665.015 178.027 665.015 178.027 545.945 121.972 545.945 121.972 665.015 100.967 665.015 100.967 524.915" style="fill-rule: evenodd;"/>
</g>
</svg>