<?xml version="1.0" encoding="UTF-8"?>
<svg xmlns="http://www.w3.org/2000/svg" width="600" height="300" viewBox="0 0 600 300">
<title>8.5.8 Время действия</title>
<rect width="600" height="300" rx="45" ry="45"/>
<rect x="10" y="10" width="580" height="280" rx="35" ry="35" style="fill: #fff;"/>
<g>
  <rect x="155.739" y="193.503" width="19.914" height="8.556"/>
  <path d="M218.35,217.58c-.33-.11-.63-.29-.91-.53-.28-.24-.51-.54-.71-.9-.18-.35-.28-.76-.28-1.25v-17.06c0-1.27-.13-2.45-.4-3.56-.26-1.1-.64-2.13-1.14-3.11-.5-.97-1.08-1.86-1.77-2.67-.68-.81-1.44-1.56-2.26-2.23-.82-.67-1.69-1.26-2.62-1.76-.93-.52-1.88-.95-2.86-1.3-1-.36-2-.62-3.01-.8-1.02-.17-2.01-.2599-3-.2599-1.37,0-2.72.09-4.05.28-1.33.19-2.65.5-3.95.92-1.3.41-2.57.95-3.82,1.61-1.24.65-2.45,1.45-3.61,2.39l4.03,6.19c.84-.81,1.72-1.48,2.64-2.05.92-.55,1.88-.99,2.86-1.32,1-.33,1.98-.57,2.97-.69.99-.12,1.97-.19,2.93-.19.53,0,1.06.06,1.59.17.54.11,1.05.28,1.54.47.49.21.98.46,1.43.76.45.31.88.65,1.29,1.03.4.39.77.8,1.1,1.26.33.45.61.93.84,1.44.22.51.4,1.04.53,1.62.13.56.19,1.17.19,1.8l-14.21,2.81c-.61.13-1.22.29-1.85.5-.61.2-1.22.44-1.8.71-.58.29-1.14.61-1.68.98-.52.37-1.02.78-1.49,1.25s-.91.98-1.3,1.54c-.39.55-.71,1.17-.98,1.83-.27.65-.47,1.36-.63,2.12-.15.76-.22,1.59-.22,2.47,0,.71.06,1.44.18,2.19s.32,1.48.58,2.22c.24.73.56,1.45.94,2.15.38.69.83,1.35,1.35,1.97.52.62,1.11,1.2,1.77,1.73.66.53,1.39.99,2.2,1.34.81.37,1.7.67,2.66.89.97.21,2,.31,3.12.31.56,0,1.13-.04,1.7-.13.59-.08,1.16-.2,1.74-.36.57-.15,1.13-.35,1.69-.58.55-.25,1.1-.52,1.61-.82.52-.31,1.02-.65,1.49-1.03.46-.38.89-.79,1.29-1.22.39-.43.74-.89,1.06-1.39.32-.49.57-1.01.78-1.58,0,1.07.22,2.05.69,2.92.45.8701,1.06,1.6201,1.84,2.2401.77.62,1.67,1.1,2.71,1.44,1.05.34,2.14.5099,3.31.5099l2.85-7.11c-.3.02-.62-.05-.95-.16ZM207.9,209.2c0,.56-.08,1.09-.27,1.6-.17.5-.42.97-.74,1.41-.32.43-.69.83-1.14,1.21-.44.38-.93.72-1.48,1.02-.55.31-1.12.58-1.75.8-.61.23-1.26.42-1.92.59-.65.17-1.33.28-2.0099.37-.69.07-1.3701.11-2.05.11-.48,0-.95-.09-1.42-.27-.48-.17-.91-.44-1.3-.8-.39-.35-.73-.8-1-1.33-.28-.53-.47-1.15-.54-1.86-.03-.22-.04-.44-.04-.65,0-.55.11-1.07.31-1.55.28-.66.68-1.23,1.2-1.73.51-.5,1.14-.9,1.86-1.22.71-.32,1.49-.55,2.29-.7l10-2.02v5.02Z" style="fill-rule: evenodd;"/>
  <polygon points="230.12 183.552 261.472 183.552 261.472 223.45 252.926 223.45 252.926 190.692 238.676 190.692 238.676 223.45 230.12 223.45 230.12 183.552" style="fill-rule: evenodd;"/>
  <path d="M310.24,199.21c-.25-1.4-.61-2.73-1.08-4.01-.46-1.28-1.03-2.49-1.68-3.63-.67-1.14-1.42-2.19-2.27-3.16-.85-.96-1.77-1.8199-2.75-2.6-1-.77-2.04-1.43-3.14-1.97-1.1-.55-2.26-.97-3.48-1.25-1.21-.3-2.45-.44-3.72-.44-.83,0-1.69.13-2.55.4-.86.26-1.72.64-2.58,1.13-.87.5-1.7,1.1-2.51,1.81-.81.71-1.59,1.51-2.31,2.39l-1.41-4.29h-7.15v56.92h8.56v-21.39c.72.88,1.5,1.68,2.31,2.39.81.71,1.64,1.31,2.51,1.81.86.49,1.72.87,2.58,1.14.86.2599,1.72.39,2.55.39,1.27,0,2.51-.14,3.72-.43,1.22-.29,2.3799-.71,3.48-1.26,1.1-.54,2.14-1.2,3.14-1.97.98-.78,1.9-1.64,2.75-2.6.85-.97,1.6-2.01,2.27-3.15.65-1.14,1.22-2.35,1.68-3.64.47-1.28.83-2.61,1.08-4.01.26-1.39.38-2.82.38-4.28,0-1.48-.12-2.91-.38-4.3ZM301.2,206.21c-.13.89-.31,1.72-.57,2.52-.25.8-.56,1.55-.93,2.26-.37.7-.78,1.37-1.23,1.97-.46.61-.96,1.15-1.5099,1.64-.54.48-1.11.89-1.7,1.2401-.6.34-1.22.59-1.89.77-.66.18-1.34.26-2.05.26-1.01,0-1.98-.18-2.93-.56-.93-.38-1.79-.92-2.58-1.62-.78-.7-1.49-1.52-2.11-2.48-.62-.97-1.13-2.03-1.53-3.16v-11.09c.4-1.14.91-2.2,1.53-3.16.62-.96,1.33-1.79,2.11-2.49.79-.69,1.65-1.23,2.58-1.62.95-.38,1.92-.56,2.93-.56.71,0,1.39.09,2.05.26.67.18,1.29.43,1.89.78.59.34,1.16.75,1.7,1.23.55.49,1.05,1.03,1.5099,1.64.45.61.86,1.27,1.23,1.98.37.7.68,1.46.93,2.27.26.81.44,1.66.57,2.53.13.88.19,1.77.19,2.69,0,.93-.06,1.83-.19,2.7Z" style="fill-rule: evenodd;"/>
  <path d="M356.55,199.21c-.26-1.4-.62-2.73-1.09-4.01-.47-1.28-1.04-2.49-1.71-3.63s-1.42-2.19-2.26-3.16c-.83-.96-1.75-1.8199-2.73-2.6-1-.77-2.04-1.43-3.14-1.97-1.1-.55-2.26-.97-3.46-1.25-1.2-.3-2.45-.44-3.74-.44-1.27,0-2.51.14-3.73.44-1.21.28-2.37.7-3.48,1.25-1.09.54-2.14,1.2-3.12,1.97-1,.78-1.91,1.64-2.7401,2.6-.84.97-1.59,2.02-2.2599,3.16-.6801,1.14-1.2401,2.35-1.71,3.63-.48,1.28-.83,2.61-1.09,4.01-.25,1.39-.38,2.82-.38,4.3,0,1.46.13,2.9.38,4.31.26,1.4.61,2.73,1.09,4.01.47,1.26,1.03,2.47,1.71,3.61.67,1.14,1.42,2.19,2.2599,3.17.83.97,1.7401,1.84,2.7401,2.61.98.78,2.03,1.4301,3.12,1.96,1.11.54,2.27.95,3.48,1.24,1.22.29,2.46.43,3.73.43,1.57,0,3.07-.21,4.52-.64s2.81-1.04,4.11-1.83c1.29-.78,2.48-1.72,3.56-2.83,1.09-1.1,2.07-2.33,2.93-3.7l-7.07-3.95c-.45.89-.98,1.69-1.56,2.41-.5699.73-1.21,1.34-1.9,1.84-.67.5099-1.4.91-2.18,1.19-.77.27-1.57.42-2.41.4-1.19.02-2.33-.28-3.42-.87-1.09-.57-2.06-1.37-2.92-2.39-.87-1.01-1.59-2.21-2.19-3.61-.59-1.39-1.01-2.9-1.24-4.52h28.12c.05-.45.09-.93.11-1.41.03-.48.04-.95.04-1.43,0-1.48-.12-2.91-.37-4.3ZM328.92,199.25c.32-1.45.8-2.78,1.4-3.99.61-1.22,1.32-2.27,2.15-3.16.83-.89,1.7401-1.5699,2.76-2.06,1.01-.5099,2.07-.75,3.19-.75s2.17.2401,3.19.75c1.01.4901,1.93,1.17,2.76,2.06.82.89,1.54,1.94,2.16,3.16.62,1.21,1.08,2.54,1.39,3.99h-19Z" style="fill-rule: evenodd;"/>
  <path d="M402.604,183.552v39.898h-8.546v-32.758h-11.367l-.76,12.814c-.071,1.292-.277,2.575-.584,3.857-.318,1.272-.739,2.514-1.262,3.724-.513,1.201-1.108,2.36-1.785,3.468-.667,1.118-1.385,2.164-2.144,3.139-.76.975-1.56,1.878-2.411,2.698-.852.821-1.703,1.549-2.545,2.165-.851.626-1.692,1.128-2.534,1.518-.831.39-1.631.657-2.39.78l-1.447-8.546c1.17-.482,2.268-1.139,3.294-1.959,1.026-.821,1.939-1.775,2.729-2.873.8-1.087,1.446-2.308,1.939-3.662.492-1.355.779-2.791.861-4.309l1.17-19.954h27.782Z" style="fill-rule: evenodd;"/>
  <path d="M443.97,207.89c-.1899-.88-.46-1.7-.8199-2.47-.35-.78-.79-1.5-1.3-2.18-.52-.69-1.11-1.3-1.7599-1.87-.64-.55-1.34-1.05-2.1-1.5-.76-.44-1.57-.82-2.42-1.11-.84-.31-1.73-.55-2.68-.71-.93-.17-1.88-.25-2.85-.25h-10.71v-14.25h-8.55v39.9h19.2599c.97,0,1.92-.08,2.85-.25.95-.16,1.84-.4,2.68-.69.85-.31,1.66-.68,2.42-1.11.76-.4301,1.46-.94,2.1-1.5.65-.58,1.24-1.2,1.7599-1.89.51-.67.95-1.4,1.3-2.18.36-.77.63-1.59.8199-2.46.19-.88.29-1.8.29-2.77,0-.93-.1-1.83-.29-2.71ZM434.54,212.94c-.28.7-.69,1.31-1.21,1.81-.52.5-1.12.9-1.8,1.18-.69.28-1.42.42-2.21.41h-9.99v-11.4h9.99c.79,0,1.52.13,2.21.4.68.27,1.28.66,1.8,1.16.52.51.93,1.11,1.21,1.81.3.7.44,1.46.44,2.29,0,.87-.14,1.65-.44,2.34Z" style="fill-rule: evenodd;"/>
  <path d="M133.034,134.905c-1.262,0-2.503-.144-3.724-.431-1.211-.297-2.37-.718-3.468-1.262-1.108-.543-2.154-1.2-3.139-1.97-.985-.779-1.898-1.641-2.739-2.605-.831-.965-1.59-2.011-2.257-3.15s-1.241-2.349-1.713-3.632c-.462-1.282-.831-2.616-1.078-4.011-.256-1.395-.379-2.821-.379-4.288,0-1.478.123-2.904.379-4.299.247-1.395.616-2.729,1.078-4.011.472-1.272,1.046-2.483,1.713-3.622s1.426-2.205,2.257-3.18c.841-.975,1.754-1.847,2.739-2.616.985-.77,2.031-1.426,3.139-1.96,1.098-.533,2.257-.944,3.468-1.231,1.221-.297,2.462-.441,3.724-.441,1.857,0,3.622.298,5.304.872,1.683.585,3.242,1.406,4.678,2.473,1.426,1.066,2.719,2.339,3.868,3.816,1.159,1.488,2.103,3.129,2.832,4.924l-7.52,3.571c-.38-1.262-.883-2.422-1.498-3.458-.626-1.036-1.334-1.939-2.134-2.698-.79-.759-1.652-1.344-2.585-1.765-.924-.42-1.898-.625-2.945-.625-.677,0-1.344.092-1.99.277-.646.195-1.262.472-1.867.841-.595.369-1.149.81-1.683,1.334-.533.513-1.026,1.087-1.487,1.723-.452.636-.862,1.334-1.211,2.114-.359.769-.657,1.579-.913,2.431-.257.841-.451,1.734-.595,2.657-.133.923-.205,1.878-.205,2.873,0,.985.072,1.939.205,2.862.144.923.338,1.816.595,2.667.256.842.554,1.652.913,2.411.349.759.759,1.457,1.211,2.103.461.647.954,1.231,1.487,1.755.534.513,1.088.954,1.683,1.303.605.359,1.221.636,1.867.841.646.205,1.313.308,1.99.297,1.047.011,2.021-.205,2.945-.625.933-.411,1.795-1.006,2.585-1.765.8-.759,1.508-1.662,2.134-2.719.615-1.046,1.118-2.195,1.498-3.436l7.52,3.57c-.729,1.805-1.673,3.447-2.832,4.924-1.149,1.477-2.442,2.76-3.868,3.817-1.436,1.066-2.995,1.887-4.678,2.472-1.682.585-3.447.872-5.304.872h0Z" style="fill-rule: evenodd;"/>
  <path d="M195.05,109.26c-.25-1.4-.61-2.73-1.08-4.01-.46-1.28-1.04-2.49-1.71-3.63-.67-1.13-1.42-2.19-2.26-3.16-.84-.96-1.75-1.82-2.73-2.6-1-.77-2.04-1.43-3.14-1.97-1.1-.54-2.26-.97-3.46-1.25-1.2-.3-2.45-.44-3.74-.44-1.27,0-2.51.14-3.73.44-1.21.28-2.37.71-3.48,1.25-1.09.54-2.14,1.2-3.12,1.97-1,.78-1.91,1.64-2.74,2.6-.85.97-1.59,2.03-2.26,3.16-.68,1.14-1.24,2.35-1.71,3.63-.48,1.28-.84,2.61-1.09,4.01-.25,1.39-.38,2.82-.38,4.3,0,1.46.13,2.9.38,4.3.25,1.41.61,2.74,1.09,4.02.47,1.26,1.03,2.47,1.71,3.61.67,1.14,1.41,2.19,2.26,3.17.83.97,1.74,1.84,2.74,2.61.98.78,2.03,1.43,3.12,1.96,1.11.54,2.27.95,3.48,1.24,1.22.29,2.46.4301,3.73.4301,1.57,0,3.07-.21,4.52-.64s2.81-1.04,4.1-1.83c1.3-.78,2.49-1.72,3.57-2.83,1.09-1.1,2.07-2.33,2.93-3.7l-7.07-3.95c-.45.89-.97,1.69-1.56,2.41-.57.73-1.21,1.34-1.9,1.85-.67.5-1.4.9-2.18,1.18-.77.27-1.57.42-2.41.4-1.19.02-2.33-.28-3.42-.87-1.09-.57-2.06-1.37-2.92-2.39-.8701-1.01-1.59-2.21-2.19-3.61-.59-1.39-1.02-2.9-1.2401-4.52h28.1201c.05-.45.09-.9301.11-1.41.03-.48.04-.95.04-1.43,0-1.48-.12-2.91-.38-4.3ZM167.43,109.3c.32-1.45.8-2.78,1.4-3.99.61-1.22,1.32-2.27,2.15-3.16.83-.89,1.74-1.57,2.76-2.07,1.01-.5,2.07-.74,3.19-.74,1.11,0,2.17.24,3.19.74,1.01.5,1.93,1.18,2.76,2.07.82.89,1.53,1.94,2.16,3.16.62,1.21,1.08,2.54,1.39,3.99h-19Z" style="fill-rule: evenodd;"/>
  <polygon points="206.53 93.602 215.086 93.602 215.086 109.257 229.336 109.257 229.336 93.602 237.882 93.602 237.882 133.5 229.336 133.5 229.336 116.397 215.086 116.397 215.086 133.5 206.53 133.5 206.53 93.602" style="fill-rule: evenodd;"/>
  <polygon points="248.335 93.602 279.687 93.602 279.687 100.742 268.289 100.742 268.289 133.5 259.733 133.5 259.733 100.742 248.335 100.742 248.335 93.602" style="fill-rule: evenodd;"/>
  <path d="M305.99,93.6c-.91,0-1.81.07-2.68.21-.88.14-1.7.35-2.49.61-.79.27-1.54.6-2.26.99-.73.39-1.38.84-1.98,1.35-.59.5-1.13,1.06-1.61,1.65-.48.6-.89,1.2401-1.24,1.94-.34.69-.59,1.4301-.78,2.2-.17.78-.27,1.59-.27,2.45,0,1.22.19,2.36.56,3.43.37,1.05.88,2.03,1.54,2.9.65.87,1.4399,1.65,2.36,2.34.91.68,1.91,1.24,3.03,1.67h-.15c-.25,0-.49.05-.72.14-.31.14-.6.32-.91.56-.31.25-.61.52-.91.86-.31.33-.61.69-.92,1.1-.29.4-.6.84-.91,1.31-.3.46-.61.94-.91,1.43-.3.48-.6.96-.9,1.45-.28.5-.58.99-.89,1.47-.5.81-.99,1.63-1.46,2.47-.47.83-.94,1.66-1.42,2.49-.48.82-.98,1.65-1.49,2.47-.5.8199-1.03,1.6299-1.59,2.41h9.46c.41-.61.82-1.26,1.25-1.96.43-.7.86-1.41,1.27-2.14.42-.73.85-1.48,1.27-2.2401.44-.7599.87-1.5,1.3-2.21.81-1.34,1.58-2.47,2.3-3.38.73-.92,1.46-1.64,2.22-2.21.76-.55,1.55-.95,2.38-1.19.82-.24,1.76-.37,2.79-.37h2.85v15.7h8.55v-39.9h-16.64ZM314.08,110.7h-7.82c-.71,0-1.37-.12-1.96-.35-.6-.25-1.12-.59-1.58-1.03-.45-.45-.81-.98-1.08-1.58-.27-.61-.4-1.29-.4-2.05,0-.74.13-1.41.4-2.01.27-.62.63-1.14,1.08-1.58.46-.45.98-.79,1.58-1.03.59-.25,1.25-.36,1.96-.36h7.82v9.99Z" style="fill-rule: evenodd;"/>
  <path d="M366.26,105.25c-.44-1.22-.98-2.38-1.61-3.46-.64-1.08-1.36-2.05-2.15-2.95-.8-.88-1.67-1.67-2.6-2.3701-.94-.6899-1.9301-1.29-2.9901-1.7599-1.04-.48-2.15-.85-3.3-1.11-1.15-.25-2.34-.38-3.55-.38-.96,0-1.91.14-2.83.4-.93.27-1.82.64-2.68,1.12s-1.68,1.08-2.45,1.76c-.78.7-1.48,1.5-2.12,2.39v-.39c0-.65.06-1.33.16-2,.12-.82.32-1.63.56-2.44.26-.81.58-1.61.96-2.4.38-.78.82-1.53,1.33-2.21.5-.7,1.08-1.35,1.7-1.92.64-.59,1.33-1.09,2.08-1.51.75-.42,1.55-.75,2.41-.98.86-.25,1.79-.36,2.78-.36,1.09.02,2.15.05,3.21.07,1.04.03,2.1.04,3.17.04s2.14-.03,3.23-.09c1.09-.08,2.22-.19,3.38-.37l2.66-9.24c-.86.29-1.9.49-3.12.62-1.21.12-2.51.22-3.89.27-1.38.05-2.81.07-4.29.07h-4.35c-1.6,0-3.13.19-4.6.58-1.48.4-2.86.98-4.16,1.74-1.31.76-2.53,1.69-3.66,2.79-1.11,1.1-2.14,2.36-3.07,3.76-.93,1.41-1.75,2.95-2.49,4.64-.74,1.68-1.35,3.49-1.84,5.41-.5,1.92-.87,3.98-1.14,6.14-.27,2.17-.4,4.41-.4,6.74,0,1.57.12,3.17.36,4.79.24,1.62.59,3.21,1.04,4.78.46,1.58,1.03,3.1,1.7,4.57.67,1.47,1.43,2.85,2.27,4.14.86,1.3,1.8,2.48,2.83,3.55,1.05,1.08,2.16,2,3.33,2.77,1.18.78,2.43,1.38,3.76,1.81,1.34.43,2.72.64,4.17.64,1.09,0,2.16-.12,3.24-.35,1.08-.25,2.14-.61,3.16-1.09,1.03-.47,2.0099-1.07,2.97-1.77.94-.69,1.83-1.49,2.65-2.41.82-.91,1.58-1.9301,2.26-3.03.69-1.12,1.27-2.33,1.7599-3.66.48-1.31.85-2.73,1.11-4.23.27-1.51.4-3.11.4-4.8,0-1.53-.11-2.98-.35-4.38-.22-1.39-.55-2.7-1-3.93ZM359.18,116.4c-.13.89-.32,1.74-.55,2.55-.25.81-.53,1.57-.87,2.3-.32.72-.69,1.39-1.11,1.99-.42.61-.89,1.16-1.39,1.65s-1.03.92-1.6,1.25c-.55.35-1.14.61-1.74.78-.61.19-1.23.27-1.86.27-.64,0-1.26-.08-1.87-.27-.6-.17-1.19-.43-1.74-.78-.57-.33-1.09-.76-1.58-1.25s-.95-1.04-1.37-1.65c-.42-.6-.8-1.27-1.14-1.99-.34-.73-.63-1.49-.88-2.3-.23-.81-.41-1.66-.52-2.55-.12-.89-.17-1.8-.17-2.73,0-.95.05-1.85.17-2.74.11-.88.29-1.73.52-2.54.25-.82.54-1.58.88-2.3.34-.73.72-1.39,1.14-2,.42-.61.88-1.16,1.37-1.66.49-.49,1.01-.91,1.58-1.25.55-.33,1.14-.6,1.74-.8.61-.18,1.23-.28,1.87-.28.63,0,1.25.1,1.86.28.6.2,1.19.47,1.74.8.57.34,1.1.76,1.6,1.25.5.5.97,1.05,1.39,1.66.42.61.79,1.27,1.11,2,.34.72.62,1.48.87,2.3.23.81.42,1.66.55,2.54.12.89.18,1.79.18,2.74,0,.93-.06,1.84-.18,2.73Z" style="fill-rule: evenodd;"/>
  <path d="M413.55,109.26c-.25-1.4-.61-2.73-1.08-4.01-.46-1.28-1.03-2.49-1.6899-3.63-.66-1.13-1.41-2.19-2.26-3.16-.85-.96-1.77-1.82-2.75-2.6-1-.77-2.04-1.43-3.14-1.97-1.1-.54-2.26-.97-3.48-1.25-1.21-.3-2.45-.44-3.72-.44-.83,0-1.69.13-2.55.4-.86.26-1.72.64-2.58,1.14-.87.49-1.7,1.09-2.51,1.8-.81.71-1.59,1.51-2.31,2.39l-1.41-4.29h-7.15v56.92h8.56v-21.39c.72.88,1.5,1.68,2.31,2.39s1.64,1.31,2.51,1.81c.86.49,1.72.87,2.58,1.14.86.26,1.72.39,2.55.39,1.27,0,2.51-.14,3.72-.4301,1.22-.29,2.38-.71,3.48-1.2599,1.1-.54,2.14-1.2,3.14-1.97.98-.78,1.9-1.64,2.75-2.6.85-.97,1.6-2.01,2.26-3.15.66-1.14,1.23-2.35,1.6899-3.63.47-1.29.83-2.62,1.08-4.02.26-1.39.38-2.82.38-4.28,0-1.48-.12-2.91-.38-4.3ZM404.51,116.26c-.13.89-.31,1.72-.57,2.52-.26.8-.56,1.55-.93,2.2599-.37.7-.78,1.37-1.23,1.97-.46.61-.96,1.15-1.51,1.64-.54.48-1.11.89-1.7,1.24-.6.34-1.22.59-1.89.77-.66.1801-1.34.26-2.05.26-1.01,0-1.98-.18-2.93-.56-.93-.38-1.79-.92-2.58-1.62-.78-.7-1.49-1.52-2.11-2.49-.62-.96-1.13-2.02-1.53-3.15v-11.1c.4-1.13.91-2.19,1.53-3.15.62-.96,1.33-1.79,2.11-2.49.79-.69,1.65-1.23,2.58-1.62.95-.38,1.92-.56,2.93-.56.71,0,1.39.09,2.05.26.67.18,1.29.43,1.89.78.59.34,1.16.75,1.7,1.2401.55.48,1.05,1.02,1.51,1.63.45.61.86,1.27,1.23,1.98.37.7.67,1.46.93,2.27s.44,1.66.57,2.53c.13.88.19,1.77.19,2.69,0,.93-.06,1.83-.19,2.7Z" style="fill-rule: evenodd;"/>
  <path d="M456.68,117.94c-.19-.88-.46-1.7-.82-2.47-.35-.78-.79-1.5-1.3-2.18-.52-.69-1.11-1.3-1.76-1.87-.64-.55-1.34-1.06-2.1-1.5s-1.57-.82-2.42-1.11c-.84-.31-1.73-.55-2.6801-.71-.93-.17-1.89-.25-2.85-.25h-10.71v-14.25h-8.55v39.9h19.26c.96,0,1.92-.08,2.85-.25.95-.16,1.84-.4,2.6801-.69.85-.31,1.66-.68,2.42-1.11s1.46-.94,2.1-1.5c.65-.58,1.24-1.2,1.76-1.89.51-.67.95-1.4,1.3-2.18.36-.77.63-1.59.82-2.46.19-.88.29-1.8.29-2.77,0-.9301-.1-1.83-.29-2.71ZM447.25,122.99c-.28.7-.69,1.31-1.21,1.81-.52.5-1.12.9-1.8,1.18-.69.28-1.42.42-2.21.41h-9.9901v-11.4h9.9901c.79,0,1.52.13,2.21.4.68.27,1.28.66,1.8,1.16.52.51.93,1.11,1.21,1.81.3.7.45,1.46.45,2.29,0,.87-.15,1.65-.45,2.34Z" style="fill-rule: evenodd;"/>
  <rect x="465.549" y="103.553" width="19.913" height="8.556"/>
</g>
</svg>