<?xml version="1.0" encoding="UTF-8" standalone="no"?>
<svg xmlns="http://www.w3.org/2000/svg" width="700" height="350" version="1.1">
  <title>8.4.2 Вид транспортного средства</title>
  <rect style="fill:#000000;" x="0" y="0" width="700" height="350" rx="45" ry="45"/>
  <rect style="fill:#ffffff;" x="10" y="10" width="680" height="330" rx="35" ry="35"/>
  <path style="fill:#000000;" transform="scale(1.09375) translate(-16.67 -200) scale(1.16666667)" d="m 220 240 v 105 h -120 v 15 h 175.28 a 45 45 0 0 1 44.72 -40 a 45 45 0 0 1 44.72 40 h 95.28 v -120 z"/>
  <path style="fill:#000000;" transform="scale(1.09375) translate(-16.67 -200) scale(1.16666667)" d="m 320 400 a 35 35 0 0 0 35 -35 a 35 35 0 0 0 -35 -35 a 35 35 0 0 0 -35 35 a 35 35 0 0 0 35 35 z m 0 -19 a 16 16 0 0 1 -16 -16 a 16 16 0 0 1 16 -16 a 16 16 0 0 1 16 16 a 16 16 0 0 1 -16 16 z"/>
</svg>
