<svg xmlns="http://www.w3.org/2000/svg" width="600" height="300">
<title>8.4.3 Вид транспортного средства</title>
<rect width="600" height="300" rx="45"/><rect x="10" y="10" width="580" height="280" rx="35" style="fill:#fff"/><path d="M279.23 201.43v26.36c0 9.41 8.17 15.35 16.58 15.35 8.3 0 17.21-5.69 17.21-14.98v-26.73zm-148 0v26.36c0 9.41 8.29 15.35 16.7 15.35 8.17 0 17.2-5.69 17.2-14.98v-26.73zm397.71-33.06h-25.5V145.5h25.5a5.065 5.065 0 0 0 0-10.13h-25.5v-8.81H468l-17.81 16.5v-7.69h-10.13v16.5c-16.31 0-22.87-19.12-45.75-19.12-31.83 0-36.74 40.6-63.47 40.69v-40.32c0-5.69-5.7-8.66-11.39-12.37l-25.86-61.88c-1.98-5.56-7.8-8.29-16.09-8.29H165.13c-7.67 0-12.49 1.98-15.09 8.29l-24.26 61.88c-6.19 2.85-12.87 5.69-12.87 12.37v49.5c0 5.08 7.92 10.77 18.32 10.77h183.39c7.78 0 15.23-5.44 16.13-9.89v.06c31.69 0 39-40.5 63.56-40.5 16.88 0 22.88 18.94 45.75 18.94v16.5h10.13V171L468 187.5h35.44v-9h25.5a5.301 5.301 0 0 0 5.06-5.06 5.45 5.45 0 0 0-5.06-5.07zM158.82 71.25c1.98-4.83 4.09-7.18 7.3-7.18l111.38-.12c3.34.12 5.82 2.35 7.8 7.3l19.8 49.5H138.65zm-11.26 97.76a17.325 17.325 0 1 1 17.33-17.32 17.366 17.366 0 0 1-17.33 17.32zm148.5 0a17.325 17.325 0 1 1 17.33-17.32 17.366 17.366 0 0 1-17.33 17.32z" style="fill-rule:evenodd"/></svg>