<?xml version="1.0" encoding="UTF-8"?>
<svg xmlns="http://www.w3.org/2000/svg" width="600" height="300" viewBox="0 0 600 300">
<title>8.27 Без пропуска</title>
<rect width="600" height="300" rx="45" ry="45"/>
<rect x="10" y="10" width="580" height="280" rx="35" ry="35" style="fill: #fff;"/>
<g>
  <path d="M79.14,150.25c-.44-1.23-.98-2.38-1.61-3.46-.64-1.08-1.36-2.05-2.15-2.95-.8-.88-1.67-1.67-2.6-2.3701-.94-.6899-1.9301-1.29-2.9901-1.7599-1.04-.48-2.15-.85-3.3-1.11-1.15-.25-2.34-.38-3.55-.38-.97,0-1.91.13-2.83.4-.92.27-1.82.64-2.68,1.12s-1.68,1.08-2.45,1.77c-.78.69-1.48,1.49-2.11,2.37v-.37c0-.66.05-1.34.15-2.02.12-.81.32-1.62.56-2.43.26-.81.58-1.61.96-2.4.38-.78.82-1.53,1.33-2.21.5-.7,1.08-1.35,1.7-1.92.64-.59,1.33-1.09,2.08-1.51.75-.42,1.54-.75,2.41-.98.86-.25,1.79-.36,2.78-.36,1.09.02,2.15.05,3.21.07,1.05.03,2.1.04,3.17.04s2.14-.03,3.23-.09c1.09-.08,2.22-.19,3.38-.37l2.66-9.24c-.86.29-1.89.49-3.12.62-1.21.12-2.51.22-3.89.27-1.38.05-2.81.07-4.29.07h-4.35c-1.6,0-3.13.19-4.6.58-1.48.4-2.86.98-4.16,1.74-1.31.76-2.53,1.69-3.66,2.79-1.11,1.1-2.14,2.36-3.07,3.76-.93,1.41-1.75,2.95-2.49,4.64-.74,1.68-1.35,3.49-1.84,5.41-.5,1.9301-.87,3.98-1.14,6.14-.27,2.17-.4,4.41-.4,6.74,0,1.57.12,3.17.36,4.79.24,1.62.59,3.21,1.04,4.78.47,1.58,1.03,3.1,1.7,4.57.67,1.47,1.43,2.85,2.27,4.14.86,1.3,1.8,2.48,2.84,3.55,1.04,1.08,2.15,2,3.32,2.77,1.18.78,2.43,1.38,3.76,1.81,1.34.43,2.72.64,4.17.64,1.09,0,2.16-.12,3.24-.35,1.08-.25,2.14-.61,3.16-1.09,1.03-.47,2.0099-1.07,2.97-1.77.94-.69,1.83-1.49,2.65-2.41.82-.91,1.58-1.9301,2.2599-3.03.69-1.12,1.27-2.33,1.75-3.66.4901-1.31.86-2.72,1.1201-4.23.27-1.51.4-3.11.4-4.8,0-1.53-.11-2.98-.35-4.38-.22-1.39-.55-2.7-1-3.93ZM72.06,161.4c-.13.89-.32,1.74-.55,2.55-.25.81-.53,1.57-.87,2.3-.32.72-.69,1.38-1.11,1.99-.42.61-.89,1.16-1.39,1.65s-1.03.91-1.6,1.25c-.55.35-1.14.61-1.74.78-.61.19-1.24.27-1.86.27-.64,0-1.26-.08-1.87-.27-.6-.17-1.19-.43-1.74-.78-.57-.34-1.09-.76-1.58-1.25s-.96-1.04-1.37-1.65c-.42-.61-.8-1.27-1.14-1.99-.34-.73-.63-1.49-.88-2.3-.23-.81-.41-1.66-.52-2.55-.1201-.89-.17-1.8-.17-2.73,0-.94.05-1.85.17-2.74.11-.88.29-1.73.52-2.55.25-.81.54-1.58.88-2.29.34-.73.72-1.39,1.14-2,.41-.61.88-1.16,1.37-1.66.49-.49,1.01-.91,1.58-1.25.55-.33,1.14-.6,1.74-.8.61-.18,1.23-.28,1.87-.28.62,0,1.25.1,1.86.28.6.2,1.19.47,1.74.8.57.34,1.1.76,1.6,1.25.5.5.97,1.05,1.39,1.66.42.61.79,1.27,1.11,2,.34.71.62,1.48.87,2.29.23.82.42,1.67.55,2.55.12.89.19,1.8.19,2.74,0,.93-.07,1.84-.19,2.73Z" style="fill-rule: evenodd;"/>
  <path d="M125.43,154.26c-.25-1.4-.61-2.73-1.08-4.01-.46-1.28-1.04-2.49-1.71-3.63-.67-1.13-1.42-2.19-2.26-3.16-.84-.96-1.75-1.82-2.73-2.6-1-.77-2.04-1.43-3.14-1.97-1.1-.54-2.26-.97-3.46-1.25-1.2-.3-2.45-.44-3.74-.44-1.27,0-2.51.14-3.73.44-1.21.28-2.37.71-3.48,1.25-1.09.54-2.14,1.2-3.13,1.97-.99.78-1.9,1.64-2.73,2.6-.85.97-1.6,2.03-2.26,3.16-.68,1.14-1.24,2.35-1.72,3.63-.47,1.28-.83,2.61-1.08,4.01-.25,1.39-.38,2.82-.38,4.3,0,1.46.13,2.9.38,4.31.25,1.4.61,2.73,1.08,4.01.48,1.26,1.04,2.47,1.72,3.61.66,1.14,1.41,2.19,2.26,3.17.83.97,1.74,1.84,2.73,2.61.9901.78,2.04,1.43,3.13,1.96,1.11.54,2.27.95,3.48,1.24,1.22.29,2.46.4301,3.73.4301,1.57,0,3.07-.21,4.52-.64s2.81-1.04,4.1-1.83c1.3-.78,2.49-1.72,3.57-2.83,1.09-1.1,2.07-2.33,2.93-3.7l-7.07-3.95c-.45.89-.97,1.69-1.56,2.41-.58.73-1.21,1.34-1.9,1.85-.6801.5-1.4.9-2.1801,1.17-.77.28-1.5699.43-2.41.41-1.19.02-2.33-.28-3.42-.87-1.09-.57-2.06-1.37-2.92-2.39-.87-1.01-1.59-2.21-2.1899-3.61-.6-1.39-1.02-2.9-1.2401-4.52h28.12c.05-.45.09-.9301.11-1.41.03-.48.04-.95.04-1.43,0-1.48-.12-2.91-.38-4.3ZM97.81,154.3c.32-1.45.8-2.78,1.4-3.99.61-1.22,1.33-2.27,2.15-3.16.83-.89,1.74-1.57,2.75-2.06,1.02-.51,2.08-.75,3.2-.75,1.11,0,2.17.24,3.19.75,1.01.49,1.93,1.17,2.76,2.06.82.89,1.53,1.94,2.16,3.16.62,1.21,1.08,2.54,1.39,3.99h-19Z" style="fill-rule: evenodd;"/>
  <path d="M153.219,155.663c.677,0,1.365-.134,2.052-.401.677-.266,1.293-.646,1.826-1.159.523-.503.965-1.108,1.303-1.805.349-.698.513-1.468.513-2.329,0-.339-.061-.667-.185-.995-.133-.329-.307-.647-.533-.944-.226-.308-.503-.595-.821-.862-.318-.267-.677-.513-1.077-.759-.41-.236-.841-.452-1.293-.626-.461-.174-.944-.339-1.446-.472-.503-.144-1.026-.246-1.56-.308-.533-.061-1.077-.092-1.631-.092-.882,0-1.775.051-2.677.154-.903.102-1.796.287-2.699.564-.902.287-1.785.667-2.646,1.139-.852.482-1.704,1.077-2.545,1.785l-3.683-7.14c1.242-.729,2.462-1.324,3.652-1.765,1.191-.441,2.36-.8,3.53-1.067,1.169-.267,2.328-.441,3.498-.533,1.159-.083,2.37-.134,3.611-.134.934,0,1.908.051,2.904.134,1.005.092,1.99.236,2.964.441.975.205,1.929.461,2.873.779.934.318,1.816.688,2.657,1.098.831.421,1.601.903,2.298,1.447.698.543,1.293,1.159,1.785,1.846.493.677.883,1.426,1.18,2.237.287.81.431,1.682.431,2.626,0,.585-.062,1.159-.185,1.724-.123.574-.297,1.128-.513,1.651-.215.534-.472,1.047-.759,1.539-.297.503-.615.965-.974,1.396-.349.43-.729.841-1.119,1.231s-.79.738-1.2,1.046c-.4.308-.81.575-1.211.821-.41.236-.8.431-1.179.585.533.174,1.067.389,1.6.625.534.247,1.047.513,1.549.821.513.298.995.626,1.447.985.461.359.892.739,1.292,1.159.411.421.77.862,1.108,1.334.329.462.606.975.831,1.518.226.544.411,1.108.534,1.693.123.575.185,1.2.185,1.857,0,1.016-.144,1.96-.431,2.832-.298.872-.708,1.682-1.242,2.411-.523.738-1.159,1.395-1.877,1.98-.718.584-1.508,1.097-2.36,1.559-.841.451-1.734.841-2.677,1.169-.934.339-1.888.606-2.863.821-.974.216-1.939.37-2.893.472-.944.103-1.867.154-2.749.154-1.929,0-3.776-.133-5.55-.4-1.775-.267-3.437-.667-4.997-1.19-1.559-.534-3.006-1.221-4.35-2.052-1.344-.841-2.564-1.826-3.652-2.965l5.704-5.889c.965.913,1.929,1.703,2.904,2.37.974.677,1.99,1.231,3.036,1.672,1.057.442,2.144.77,3.273.985,1.128.216,2.339.329,3.632.329,1.056,0,2.031-.144,2.903-.421.872-.277,1.621-.667,2.247-1.159.615-.493,1.098-1.098,1.436-1.806.349-.708.513-1.477.513-2.318,0-.76-.123-1.478-.379-2.165-.247-.677-.626-1.283-1.119-1.806-.492-.513-1.097-.933-1.805-1.251-.708-.318-1.508-.472-2.391-.472h-4.975v-5.704h4.975Z" style="fill-rule: evenodd;"/>
  <polygon points="209.946 138.602 241.298 138.602 241.298 178.5 232.752 178.5 232.752 145.742 218.502 145.742 218.502 178.5 209.946 178.5 209.946 138.602" style="fill-rule: evenodd;"/>
  <path d="M290.07,154.26c-.26-1.4-.62-2.73-1.09-4.01-.46-1.28-1.02-2.49-1.68-3.63-.67-1.13-1.42-2.19-2.27-3.16-.85-.96-1.76-1.82-2.75-2.6-.9901-.77-2.04-1.43-3.14-1.97-1.09-.54-2.25-.97-3.47-1.25-1.21-.3-2.46-.44-3.73-.44-.83,0-1.68.13-2.54.4-.86.26-1.73.64-2.59,1.14-.86.49-1.69,1.09-2.5,1.8-.81.71-1.59,1.51-2.32,2.39l-1.41-4.29h-7.15v56.92h8.56v-21.39c.73.88,1.51,1.68,2.32,2.39s1.64,1.31,2.5,1.81c.86.49,1.73.87,2.59,1.14.86.26,1.71.39,2.54.39,1.27,0,2.52-.14,3.73-.4301,1.22-.29,2.38-.71,3.47-1.2599,1.1-.54,2.15-1.2,3.14-1.97.99-.78,1.9-1.64,2.75-2.6.85-.97,1.6-2.01,2.27-3.15.66-1.14,1.22-2.35,1.68-3.64.47-1.28.83-2.61,1.09-4.0099.26-1.39.38-2.82.38-4.28,0-1.48-.12-2.91-.38-4.3ZM281.02,161.26c-.12.89-.31,1.72-.56,2.52-.26.8-.57,1.55-.94,2.2599-.37.7-.78,1.37-1.23,1.97-.46.61-.95,1.15-1.5099,1.64-.54.48-1.1.89-1.7,1.24-.59.34-1.22.59-1.89.77-.65.1801-1.33.26-2.05.26-1,0-1.98-.18-2.92-.56-.9399-.38-1.8-.92-2.59-1.62-.78-.7-1.49-1.52-2.1-2.48-.63-.97-1.14-2.03-1.54-3.16v-11.09c.4-1.14.91-2.2,1.54-3.16.61-.96,1.3199-1.79,2.1-2.49.79-.7,1.65-1.23,2.59-1.62.94-.38,1.92-.56,2.92-.56.72,0,1.4.09,2.05.26.67.18,1.3.43,1.89.78.6.34,1.16.75,1.7,1.2401.56.48,1.05,1.02,1.5099,1.63.45.61.86,1.27,1.23,1.98.37.7.68,1.46.94,2.27.25.81.44,1.66.56,2.53.13.88.2,1.77.2,2.69,0,.93-.0699,1.83-.2,2.7Z" style="fill-rule: evenodd;"/>
  <path d="M336.39,154.24c-.25-1.41-.59-2.74-1.07-4.01-.47-1.27-1.03-2.48-1.71-3.63-.67-1.16-1.43-2.21-2.26-3.17-.84-.96-1.75-1.83-2.7599-2.6-.9901-.77-2.05-1.44-3.15-1.98-1.09-.55-2.25-.96-3.45-1.23-1.2-.28-2.45-.42-3.75-.42-1.26,0-2.5.14-3.72.42-1.21.27-2.37.68-3.48,1.23-1.1.54-2.14,1.21-3.13,1.98-.99.77-1.91,1.64-2.74,2.6-.84.96-1.59,2.01-2.25,3.17-.68,1.15-1.25,2.36-1.72,3.63-.47,1.27-.83,2.6-1.09,4.01-.24,1.4-.38,2.84-.38,4.32,0,1.46.14,2.89.38,4.28.26,1.4.62,2.73,1.09,4.0099.47,1.29,1.04,2.5,1.72,3.64.66,1.14,1.41,2.18,2.25,3.15.83.96,1.75,1.82,2.74,2.6.9901.77,2.03,1.43,3.13,1.97,1.11.55,2.27.97,3.48,1.2599,1.22.29,2.46.4301,3.72.4301,1.3,0,2.55-.14,3.75-.4301,1.2-.29,2.36-.71,3.45-1.2599,1.1-.54,2.16-1.2,3.15-1.97,1.0099-.78,1.92-1.64,2.7599-2.6.83-.97,1.59-2.01,2.26-3.15.68-1.14,1.24-2.35,1.71-3.64.48-1.28.82-2.61,1.07-4.0099.24-1.39.36-2.82.36-4.28,0-1.48-.12-2.92-.36-4.32ZM328.03,161.42c-.14.92-.34,1.81-.6,2.67-.24.84-.56,1.65-.92,2.41-.37.76-.78,1.45-1.22,2.1-.44.65-.93,1.23-1.46,1.75-.53.52-1.09.96-1.69,1.31-.59.36-1.22.63-1.89.84-.65.2-1.32.31-2.01.29-.69.02-1.34-.09-1.99-.29-.64-.21-1.27-.48-1.86-.84-.6-.35-1.16-.79-1.7-1.31-.53-.52-1.02-1.1-1.48-1.75-.46-.65-.87-1.34-1.23-2.1-.37-.76-.67-1.57-.91-2.41-.25-.86-.43-1.75-.57-2.67-.15-.93-.21-1.88-.21-2.86,0-1,.06-1.95.21-2.88.14-.92.32-1.81.57-2.67.24-.87.54-1.68.91-2.44.36-.75.77-1.45,1.23-2.09.46-.63.95-1.21,1.48-1.72.54-.53,1.1-.97,1.7-1.34.59-.37,1.22-.64,1.86-.84.65-.18,1.3-.27,1.99-.27s1.36.09,2.01.27c.67.2,1.3.47,1.89.84.6.37,1.16.81,1.69,1.34.53.51,1.02,1.09,1.46,1.72.44.64.85,1.34,1.22,2.09.36.76.68,1.57.92,2.44.26.86.46,1.75.6,2.67.1299.93.2,1.88.2,2.88,0,.98-.07,1.93-.2,2.86Z" style="fill-rule: evenodd;"/>
  <polygon points="347.846 138.602 379.198 138.602 379.198 178.5 370.652 178.5 370.652 145.742 356.402 145.742 356.402 178.5 347.846 178.5 347.846 138.602" style="fill-rule: evenodd;"/>
  <path d="M398.291,138.602l9.233,25.648,7.869-25.648h9.233l-12.157,39.826c-.184.533-.369,1.179-.574,1.949-.205.78-.452,1.611-.739,2.513-.297.903-.657,1.847-1.108,2.832-.441.985-.975,1.949-1.611,2.883-.636.944-1.385,1.836-2.257,2.677-.882.852-1.908,1.591-3.077,2.227-1.18.636-2.514,1.138-4.012,1.518-1.498.38-3.19.575-5.088.575l-2.668-7.941c1.221,0,2.288-.051,3.191-.154.913-.103,1.723-.267,2.431-.492.718-.236,1.355-.524,1.919-.872.574-.359,1.108-.801,1.621-1.334.605-.605,1.118-1.262,1.518-1.96.41-.697.708-1.395.893-2.092.195-.688.277-1.355.266-1.991-.01-.636-.102-1.19-.287-1.672l-13.87-38.492h9.274Z" style="fill-rule: evenodd;"/>
  <path d="M450.55,179.905c-1.262,0-2.503-.144-3.724-.431-1.211-.297-2.37-.718-3.468-1.262-1.108-.543-2.154-1.2-3.139-1.97-.985-.779-1.898-1.641-2.739-2.605-.831-.965-1.59-2.011-2.257-3.15-.667-1.139-1.242-2.349-1.713-3.632-.462-1.282-.831-2.616-1.078-4.011-.256-1.395-.379-2.821-.379-4.288,0-1.478.123-2.904.379-4.299.247-1.395.616-2.729,1.078-4.011.471-1.272,1.046-2.483,1.713-3.622.667-1.139,1.426-2.205,2.257-3.18.841-.975,1.754-1.847,2.739-2.616.985-.77,2.031-1.426,3.139-1.96,1.098-.533,2.257-.944,3.468-1.231,1.221-.297,2.462-.441,3.724-.441,1.857,0,3.622.298,5.304.872,1.683.585,3.242,1.406,4.678,2.473,1.426,1.066,2.719,2.339,3.868,3.816,1.159,1.488,2.103,3.129,2.831,4.924l-7.52,3.571c-.379-1.262-.882-2.422-1.497-3.458-.626-1.036-1.334-1.939-2.134-2.698-.79-.759-1.652-1.344-2.586-1.765-.923-.42-1.898-.625-2.944-.625-.677,0-1.344.092-1.99.277-.647.195-1.262.472-1.867.841-.595.369-1.149.81-1.683,1.334-.533.513-1.026,1.087-1.488,1.723-.451.636-.861,1.334-1.21,2.114-.359.769-.657,1.579-.913,2.431-.257.841-.452,1.734-.595,2.657-.134.923-.205,1.878-.205,2.873,0,.985.071,1.939.205,2.862.143.923.338,1.816.595,2.667.256.842.554,1.652.913,2.411.349.759.759,1.457,1.21,2.103.462.647.955,1.231,1.488,1.755.534.513,1.088.954,1.683,1.303.605.359,1.22.636,1.867.841.646.205,1.313.308,1.99.297,1.046.011,2.021-.205,2.944-.625.934-.411,1.796-1.006,2.586-1.765.8-.759,1.508-1.662,2.134-2.719.615-1.046,1.118-2.195,1.497-3.436l7.52,3.57c-.728,1.805-1.672,3.447-2.831,4.924-1.149,1.477-2.442,2.76-3.868,3.817-1.436,1.066-2.995,1.887-4.678,2.472-1.682.585-3.447.872-5.304.872h0Z" style="fill-rule: evenodd;"/>
  <path d="M476.242,138.602h8.546v14.096c.585,0,1.149-.072,1.693-.226.544-.154,1.077-.359,1.6-.605.513-.257,1.006-.554,1.478-.893.472-.349.933-.728,1.385-1.139.461-.42.913-.861,1.354-1.313.441-.461.872-.923,1.293-1.405.41-.483.841-.954,1.272-1.426s.851-.934,1.251-1.385c.708-.708,1.478-1.457,2.298-2.227.821-.769,1.714-1.497,2.678-2.185.964-.687,2.001-1.272,3.098-1.764,1.108-.493,2.288-.811,3.55-.934l1.334,7.715c-1.016.051-1.878.205-2.586.472-.708.267-1.354.626-1.939,1.067-.574.441-1.128.954-1.651,1.518-.513.575-1.078,1.19-1.693,1.847-.503.554-.975,1.139-1.426,1.764-.441.616-.903,1.211-1.406,1.765-.492.564-1.036,1.057-1.631,1.488-.595.43-1.293.718-2.103.872.626,0,1.241.082,1.816.246.585.164,1.139.4,1.652.697.523.308,1.015.667,1.467,1.088.461.421.902.872,1.333,1.364.431.493.842,1.026,1.231,1.601.39.564.78,1.149,1.16,1.744.379.595.759,1.21,1.118,1.826.369.626.728,1.221,1.087,1.806.257.431.513.892.78,1.385.267.492.534,1.005.811,1.539.287.533.564,1.087.841,1.651.277.575.564,1.139.851,1.693.298.554.585,1.118.872,1.672.298.554.606,1.098.934,1.631.328.534.657,1.047.995,1.519.328.482.667.933,1.016,1.334h-11.398c-.482-.985-.923-1.929-1.344-2.812-.421-.882-.841-1.774-1.252-2.677-.42-.903-.861-1.826-1.313-2.77-.462-.954-.974-1.96-1.559-3.027-.329-.584-.647-1.149-.954-1.692-.298-.544-.616-1.057-.944-1.56-.329-.492-.677-.954-1.047-1.405-.369-.441-.759-.842-1.179-1.211-.421-.369-.862-.687-1.324-.974-.472-.277-.985-.513-1.539-.698-.564-.195-1.169-.328-1.826-.4-.328-.021-.677-.041-1.026-.041-.359,0-.728.02-1.108.041v19.226h-8.546v-39.898Z" style="fill-rule: evenodd;"/>
  <path d="M555.58,172.63c-.33-.11-.64-.29-.92-.53-.27-.24-.5099-.54-.7-.89-.19-.36-.28-.77-.28-1.26v-17.06c0-1.27-.13-2.45-.4-3.56-.27-1.09-.65-2.13-1.14-3.11-.5-.97-1.09-1.86-1.77-2.67s-1.44-1.56-2.26-2.23-1.69-1.26-2.63-1.76c-.92-.52-1.88-.95-2.86-1.3-1-.36-1.99-.62-3.01-.8-1.01-.17-2.01-.26-2.99-.26-1.38,0-2.72.09-4.05.28-1.34.19-2.65.5-3.95.92-1.31.41-2.58.95-3.82,1.61-1.24.65-2.45,1.45-3.61,2.39l4.02,6.19c.84-.81,1.72-1.48,2.65-2.05.92-.55,1.87-.99,2.86-1.32,1-.33,1.98-.5699,2.96-.6899,1-.1201,1.97-.19,2.94-.19.52,0,1.05.06,1.59.17.53.11,1.05.28,1.54.47.49.21.97.46,1.42.76.45.31.89.65,1.3,1.03.4.39.77.8,1.09,1.26.33.45.62.93.85,1.4399.22.51.39,1.04.53,1.6201.12.56.18,1.17.18,1.8l-14.21,2.81c-.6.13-1.22.29-1.84.5-.62.2-1.22.44-1.81.71-.57.29-1.14.61-1.67.98-.52.37-1.03.78-1.5,1.25-.47.47-.9.98-1.29,1.54-.39.55-.72,1.17-.99,1.83-.26.65-.47,1.36-.62,2.12-.16.76-.23,1.59-.23,2.47,0,.71.06,1.44.19,2.19.12.75.3199,1.48.5699,2.22.25.73.57,1.45.95,2.15.38.69.83,1.35,1.35,1.97.51.62,1.11,1.2,1.76,1.73.66.53,1.4.99,2.21,1.35.81.36,1.69.66,2.66.88.96.21,2,.31,3.12.31.55,0,1.13-.04,1.7-.13.58-.08,1.16-.2,1.73-.36.58-.15,1.13-.35,1.7-.58.55-.25,1.09-.51,1.61-.82s1.01-.65,1.48-1.03c.47-.38.9-.79,1.3-1.22.39-.43.7401-.89,1.05-1.38.3199-.5.58-1.02.78-1.59,0,1.07.23,2.05.69,2.92.45.87,1.07,1.62,1.85,2.24.77.62,1.67,1.1,2.71,1.44,1.04.34,2.14.51,3.31.51l2.84-7.11c-.3.02-.61-.05-.94-.16ZM545.12,164.25c0,.56-.08,1.09-.26,1.6-.18.5-.42.97-.74,1.41-.32.43-.7.83-1.14,1.21-.44.38-.93.72-1.49,1.02-.54.31-1.12.58-1.74.8-.62.23-1.26.42-1.92.59-.66.17-1.34.28-2.01.37-.69.07-1.38.11-2.05.11-.49,0-.96-.09-1.43-.27-.47-.17-.9-.44-1.29-.8-.39-.35-.73-.8-1.01-1.33-.27-.53-.46-1.15-.53-1.86-.03-.22-.04-.44-.04-.64,0-.56.1-1.08.3101-1.56.27-.66.67-1.2401,1.2-1.73.51-.5,1.13-.9,1.85-1.22.72-.32,1.49-.55,2.3-.7l9.99-2.02v5.02Z" style="fill-rule: evenodd;"/>
</g>
</svg>