<?xml version="1.0" encoding="UTF-8"?>
<svg xmlns="http://www.w3.org/2000/svg" width="600" height="300" viewBox="0 0 600 300">
<title>8.16.2 Влажное, заснеженное (обледенелое) покрытие</title>
<rect width="600" height="300" rx="45" ry="45"/>
<rect x="10" y="10" width="580" height="280" rx="35" ry="35" style="fill: #fff;"/>
<path d="M93.3,140.85c-.3-9.3-10.35-17.25-19.05-15.4509-8.7,2.2509-14.7,9.6009-14.55,17.1009,0,10.65,4.05,18.45,29.9991,23.25,98.55,14.55,169.8,10.2,189.3009-10.5,20.6991-21.1509,22.9491-48.45,6-65.25-23.25-20.4-51-23.1-74.4-13.2-17.85,7.2-37.0509,18.5991-43.3509,63.75h-2.6991c-10.8-54-55.8-59.1-68.7.3h-2.55ZM90.6,117.6c-4.2-2.4-9.0009-3.75-14.25-3.75-15.75,0-28.65,12.7491-28.65,28.65,0,15.75,10.5,28.65,44.85,35.1,96.75,15.45,174.7491,9.9,196.2-16.05,22.65-26.55,25.35-60.9,3.9-80.5509-25.5008-22.6491-58.2009-25.05-78.9-18.15-19.3509,7.3509-39.45,19.9509-50.2509,44.2509-16.9491-28.6509-56.5491-28.05-72.5991,10.7991l-.3-.2991ZM78.75,191.25h10.5l-14.85,33.75h-10.65l15-33.75ZM123.75,206.25h10.5l-14.85,33.75h-10.65l15-33.75ZM168.75,191.25h10.5l-14.85,33.75h-10.65l15-33.75ZM213.75,206.25h10.5l-14.8509,33.75h-10.6491l15-33.75ZM258.2991,191.25h10.5009l-14.7,33.75h-10.8009l15-33.75Z" style="fill-rule: evenodd;"/>
<path d="M436.5677,55.65h13.3157v21.75l22.6063-21.75,10.0646,9.6-32.6708,30.6v43.35l38.5551-21.75,11.7677-42.45,13.3157,3.15-8.3614,29.6991,19.2-10.4991,7.5874,11.25-20.1292,10.4991,30.9677,7.9509-3.2511,12.9-44.4394-11.25-38.5543,21.75,38.5543,20.85,44.4394-11.25,3.2511,12.9-30.9677,7.95,20.1292,10.5-7.5874,11.25-19.2-10.5,8.3614,29.7-13.3157,3.15-11.7677-42.45-38.5551-20.85v42.45l32.6708,30.6-10.0646,9.6-22.6063-21.75v21.75h-13.3157v-21.75l-22.6071,21.75-10.0646-9.6,32.6717-30.6v-42.45l-38.5552,20.85-11.7677,42.45-13.3166-3.15,8.3614-29.7-19.2,10.5-7.5866-11.25,20.1283-10.5-30.9677-7.95,3.252-12.9,44.4386,11.25,38.5552-20.85-38.5552-21.75-44.4386,11.25-3.252-12.9,30.9677-7.9509-20.1283-10.4991,7.5866-11.25,19.2,10.4991-8.3614-29.6991,13.3166-3.15,11.7677,42.45,38.5552,21.75v-43.35l-32.6717-30.6,10.0646-9.6,22.6071,21.75v-21.75Z" style="fill-rule: evenodd;"/>
</svg>