<?xml version="1.0" encoding="UTF-8" standalone="no"?>
<svg xmlns="http://www.w3.org/2000/svg" width="700" height="350" version="1.1">
  <title>8.4.7.2 Вид транспортного средства</title>
  <rect style="fill:#000000;" x="0" y="0" width="700" height="350" rx="45" ry="45"/>
  <rect style="fill:#ffffff;" x="10" y="10" width="680" height="330" rx="35" ry="35"/>
  <path style="fill:#000000;" transform="scale(1.09375) scale(-1 1)" d="m -283 245 a 24 24 0 0 0 18.11 -8.25 l 48.02 -55.24 l 2.03 16.55 a 41 41 0 0 0 -28.16 38.94 a 41 41 0 0 0 41 41 a 41 41 0 0 0 41 -41 a 41 41 0 0 0 -37.96 -40.89 l -18.39 -149.84 a 6 6 0 0 0 -5.96 -5.27 h -43.69 a 6 6 0 0 0 -6 6 a 6 6 0 0 0 6 6 h 29.04 a 6 6 0 0 1 5.96 5.27 l 12.50 101.87 l -57.46 66.11 a 8 8 0 0 1 -6.04 2.75 h -114.79 a 41 41 0 0 0 -40.21 -33 a 41 41 0 0 0 -41 41 a 41 41 0 0 0 41 41 a 41 41 0 0 0 40.21 -33 z m -155 -16 a 8 8 0 0 0 -8 8 a 8 8 0 0 0 8 8 h 26.83 a 28 28 0 0 1 -26.83 20 a 28 28 0 0 1 -28 -28 a 28 28 0 0 1 28 -28 a 28 28 0 0 1 26.83 20 z m 228.06 8.97 a 8 8 0 0 0 7.94 7.03 a 8 8 0 0 0 8 -8 a 8 8 0 0 0 -0.06 -0.97 l -3.27 -26.64 a 28 28 0 0 1 23.33 27.61 a 28 28 0 0 1 -28 28 a 28 28 0 0 1 -28 -28 a 28 28 0 0 1 16.79 -25.66 z"/>
</svg>
