<svg xmlns="http://www.w3.org/2000/svg" width="300" height="200">
<title>6.13 Километровый знак</title>
<defs><style>.a{fill:#fff}</style></defs><rect class="a" x="1" y="1" width="298" height="198" rx="44"/><path d="M255 2a43.049 43.049 0 0 1 43 43v110a43.049 43.049 0 0 1-43 43H45a43.049 43.049 0 0 1-43-43V45A43.049 43.049 0 0 1 45 2h210m0-2H45A45 45 0 0 0 0 45v110a45 45 0 0 0 45 45h210a45 45 0 0 0 45-45V45a45 45 0 0 0-45-45z"/><rect x="10" y="10" width="280" height="180" rx="35" style="fill:#0d69e1"/><path class="a" d="M116.532 61.396h11.424v76.16h-13.329V78.532l-10.2 6.392-4.488-5.847zM176.507 60.443c10.472 0 21.896 8.568 21.896 19.993 0 9.52-1.768 12.512-6.664 18.496-5.984 7.616-14.96 15.912-24.753 26.248h31.417a37.274 37.274 0 0 1-2.856 12.377H149.85v-11.425A289.882 289.882 0 0 0 177.595 97.3c4.624-5.44 8.024-9.248 8.024-16.864 0-4.76-4.352-9.929-11.016-9.929-5.712 0-10.472 5.168-15.233 9.929l-7.615-8.569c5.712-6.528 13.328-11.424 24.752-11.424z"/></svg>