<svg width="110" height="60" viewBox="0 0 110 60" fill="none" xmlns="http://www.w3.org/2000/svg">
<g clip-path="url(#clip0_10_73)">
<path d="M98.7 5H11.3C7.82061 5 5 7.82061 5 11.3V48.7C5 52.1794 7.82061 55 11.3 55H98.7C102.179 55 105 52.1794 105 48.7V11.3C105 7.82061 102.179 5 98.7 5Z" fill="black"/>
<path d="M98.672 6.429H11.329C8.62282 6.429 6.42902 8.62281 6.42902 11.329V48.672C6.42902 51.3782 8.62282 53.572 11.329 53.572H98.672C101.378 53.572 103.572 51.3782 103.572 48.672V11.329C103.572 8.62281 101.378 6.429 98.672 6.429Z" fill="white"/>
<path d="M43.4637 13.4087C42.5518 13.4087 41.5767 14.105 41.2795 14.9678L40.1782 18.1714L37.8914 24.8065C37.8886 24.812 37.8896 24.8194 37.8877 24.8249L37.3554 26.3694C37.0461 26.3684 36.7397 26.4286 36.4537 26.5466C36.1677 26.6646 35.9079 26.838 35.689 27.0568C35.4702 27.2757 35.2966 27.5357 35.1784 27.8219C35.0602 28.1081 34.9995 28.4149 35 28.7246V38.1483C34.9997 38.4582 35.0603 38.765 35.1786 39.0513C35.2969 39.3376 35.4704 39.5977 35.6891 39.8168C35.9079 40.0358 36.1677 40.2095 36.4537 40.3278C36.7396 40.4461 37.046 40.5068 37.3554 40.5063H72.6446C72.954 40.5068 73.2604 40.4461 73.5464 40.3278C73.8323 40.2095 74.0921 40.0358 74.3109 39.8168C74.5297 39.5977 74.7031 39.3376 74.8214 39.0513C74.9397 38.765 75.0004 38.4582 75 38.1483V28.7246C75 27.4192 73.9481 26.3703 72.6446 26.3703L72.1132 24.8249C72.1104 24.8194 72.1114 24.812 72.1086 24.8065L69.8218 18.1714L68.7205 14.9678C68.4233 14.104 67.4491 13.4087 66.5363 13.4087H61.4348L59.8377 10.8H55H50.1624L48.5652 13.4087H43.4637ZM44.1818 15.7676H65.8182C66.2756 15.7676 66.7604 16.1157 66.9085 16.5463L70.293 26.3694H39.7062L43.0915 16.5472C43.2406 16.1148 43.7254 15.7676 44.1818 15.7676ZM69.1157 28.6064C70.0517 28.6064 70.9492 28.9788 71.611 29.6416C72.2729 30.3044 72.6446 31.2033 72.6446 32.1407C72.6446 33.078 72.2729 33.977 71.611 34.6397C70.9492 35.3025 70.0517 35.6749 69.1157 35.6749C68.1797 35.6749 67.2822 35.3025 66.6204 34.6397C65.9586 33.977 65.5868 33.078 65.5868 32.1407C65.5868 31.2033 65.9586 30.3044 66.6204 29.6416C67.2822 28.9788 68.1797 28.6064 69.1157 28.6064ZM40.8843 28.7246C41.8203 28.7246 42.7178 29.097 43.3797 29.7597C44.0414 30.4225 44.4132 31.3215 44.4132 32.2589C44.4132 33.1962 44.0414 34.0951 43.3797 34.7579C42.7178 35.4207 41.8203 35.793 40.8843 35.793C39.9484 35.793 39.0508 35.4207 38.389 34.7579C37.7271 34.0951 37.3554 33.1962 37.3554 32.2589C37.3554 31.3215 37.7271 30.4225 38.389 29.7597C39.0508 29.097 39.9484 28.7246 40.8843 28.7246ZM37.3554 41.6834V46.3957C37.3554 47.333 37.7271 48.232 38.389 48.8948C39.0508 49.5577 39.9484 49.93 40.8843 49.93C41.8203 49.93 42.7178 49.5577 43.3797 48.8948C44.0414 48.232 44.4132 47.333 44.4132 46.3957V41.6834H37.3554ZM65.5868 41.6834V46.3957C65.5868 47.3332 65.9586 48.2323 66.6205 48.8951C67.2824 49.558 68.1801 49.9304 69.1162 49.9304C70.0522 49.9304 70.9499 49.558 71.6118 48.8951C72.2737 48.2323 72.6456 47.3332 72.6456 46.3957V41.6834H65.5858H65.5868Z" fill="black"/>
</g>
<defs>
<clipPath id="clip0_10_73">
<rect width="110" height="60" fill="white"/>
</clipPath>
</defs>
</svg>
