<svg xmlns="http://www.w3.org/2000/svg" width="350" height="350">
<title>6.14.1 Номер маршрута</title>
<defs><style>.a{fill:#fff}</style></defs><rect class="a" x="1" y="1" width="348" height="348" rx="44"/><path d="M305 2a43.049 43.049 0 0 1 43 43v260a43.049 43.049 0 0 1-43 43H45a43.049 43.049 0 0 1-43-43V45A43.049 43.049 0 0 1 45 2h260m0-2H45A45 45 0 0 0 0 45v260a45 45 0 0 0 45 45h260a45 45 0 0 0 45-45V45a45 45 0 0 0-45-45z"/><rect x="10" y="10" width="330" height="330" rx="35" style="fill:#0d69e1"/><g><path class="a" d="M191.81 251.72h-28.78l-9.59-113.16-40.28 90.16-40.28-90.16-9.6 113.16H34.5L51.75 98.28h26.87l34.54 74.81 34.53-74.81h26.84l17.28 153.44zM315.5 198.03q-.3 23.625-16.06 39.31-15.765 15.705-43.41 16.32a96.856 96.856 0 0 1-24.69-3.85q-11.085-3.36-11.75-3.84l-3.84-24.94a44.368 44.368 0 0 0 17 6.22 113.17 113.17 0 0 0 19.44 1.47 40.76 40.76 0 0 0 23.03-7.19q10.785-7.185 11.5-21.59a31.085 31.085 0 0 0-6.94-19.44q-6.885-8.805-19.9-9.34a25.381 25.381 0 0 0-14.41 5.03c-3.84 2.99-6.71 5.18-8.63 6.5l-17.25-9.6V98.28h88.22l-7.65 24.94h-55.63v36.44a22.47 22.47 0 0 1 11.35-7.69 44.414 44.414 0 0 1 13.59-1.91q16.725.12 30.94 12.47 14.205 12.345 15.09 35.5z"/></g></svg>