<?xml version="1.0" encoding="UTF-8"?>
<svg xmlns="http://www.w3.org/2000/svg" width="600" height="900" viewBox="0 0 600 900">
<title>6.2.1 Рекомендуемая скорость при проезде искусственной неровности</title>
<rect width="600" height="900" rx="45" ry="45" style="fill: #fff;"/>
<rect x="1" y="1" width="598" height="898" rx="44" ry="44" style="fill:none; stroke: #000; stroke-width: 2px;"/>
<path d="M555,10H45c-19.3,0-35,15.7-35,35v810c0,19.3,15.7,35,35,35h510c19.3,0,35-15.7,35-35V45c0-19.3-15.7-35-35-35ZM580,855c0,13.79-11.21,25-25,25H45c-13.79,0-25-11.21-25-25V45c0-13.79,11.21-25,25-25h510c13.79,0,25,11.21,25,25v810Z" style="fill-rule: evenodd;"/>
<rect x="56.25" y="150" width="487.5" height="487.5" rx="20" ry="20" style="fill: #0d69e1;"/>
<path d="M472.17,370.21c-1.05-7.64-2.54-15.01-4.55-22.05-1.97-7.04-4.39-13.72-7.2-19.95-2.86-6.28-6.04-12.07-9.54-17.39-3.54-5.31-7.4-10.05-11.59-14.28-4.14-4.22-8.57-7.84-13.24-10.82-4.66-2.98-9.57-5.27-14.68-6.84-5.11-1.61-10.34-2.42-15.73-2.42-5.47,0-10.75.81-15.85,2.42-5.12,1.57-10.02,3.86-14.69,6.84-4.67,2.98-9.09,6.6-13.28,10.82-4.14,4.23-8.01,8.97-11.55,14.28-3.5,5.32-6.68,11.11-9.53,17.39-2.82,6.23-5.23,12.91-7.2,19.95-2.02,7.04-3.5,14.41-4.55,22.05-1.05,7.65-1.57,15.49-1.57,23.54,0,8.17.52,16.05,1.57,23.7,1.05,7.64,2.53,14.97,4.55,21.97,1.97,7.04,4.38,13.64,7.2,19.91,2.85,6.28,6.03,12.03,9.53,17.34,3.54,5.36,7.41,10.1,11.55,14.33,4.19,4.22,8.61,7.8,13.28,10.82,4.67,2.98,9.57,5.23,14.69,6.84,5.1,1.57,10.38,2.38,15.85,2.38,5.39,0,10.62-.81,15.73-2.38,5.11-1.61,10.02-3.86,14.68-6.84,4.67-3.02,9.1-6.6,13.24-10.82,4.19-4.23,8.05-8.97,11.59-14.33,3.5-5.31,6.68-11.06,9.54-17.34,2.81-6.27,5.23-12.87,7.2-19.91,2.01-7,3.5-14.33,4.55-21.97,1.04-7.65,1.56-15.53,1.56-23.7,0-8.05-.52-15.89-1.56-23.54ZM433.86,409.56c-.52,5.07-1.29,9.94-2.29,14.61-1.01,4.66-2.18,9.09-3.58,13.23-1.41,4.19-2.98,8.05-4.79,11.63-1.77,3.58-3.7,6.8-5.8,9.62-2.09,2.86-4.3,5.23-6.63,7.16-2.34,1.93-4.75,3.46-7.29,4.55-2.53,1.08-5.15,1.65-7.84,1.65-2.78,0-5.43-.57-7.97-1.65-2.53-1.09-4.95-2.62-7.28-4.55-2.34-1.93-4.55-4.3-6.64-7.16-2.09-2.82-4.02-6.04-5.83-9.62-1.78-3.58-3.38-7.44-4.75-11.63-1.41-4.14-2.58-8.57-3.58-13.23-1.01-4.67-1.77-9.54-2.3-14.61-.56-5.07-.84-10.34-.84-15.81,0-5.35.28-10.58.84-15.69.53-5.15,1.29-10.02,2.3-14.69,1-4.67,2.17-9.09,3.58-13.28,1.37-4.1801,2.97-8,4.75-11.54,1.81-3.54,3.74-6.72,5.83-9.54s4.3-5.23,6.64-7.24c2.33-1.97,4.75-3.5,7.28-4.55,2.54-1.05,5.19-1.5699,7.97-1.5699,2.69,0,5.31.52,7.84,1.5699,2.54,1.05,4.95,2.58,7.29,4.55,2.33,2.01,4.54,4.42,6.63,7.24,2.1,2.82,4.03,6,5.8,9.54,1.81,3.54,3.38,7.36,4.79,11.54,1.4,4.19,2.57,8.61,3.58,13.28,1,4.67,1.77,9.54,2.29,14.69.56,5.11.85,10.34.85,15.69,0,5.47-.29,10.74-.85,15.81Z" style="fill: #fff; fill-rule: evenodd;"/>
<path d="M271.55,427.31v-145.33h-39.02l-106.27,145.33v33.51h106.27v44.7h39.02v-44.7h16.86l11.19-33.51h-28.05ZM232.53,427.31h-67.08l67.08-89.45v89.45Z" style="fill: #fff; fill-rule: evenodd;"/>
<path d="M525.01,784.7v21.42H74.99v-21.42h62.34c40.91-9.75,54.55-68.19,163.65-68.19,105.19,0,122.73,60.39,161.69,68.19h62.34Z" style="fill-rule: evenodd;"/>
</svg>