<?xml version="1.0" encoding="UTF-8" standalone="no"?>
<svg xmlns="http://www.w3.org/2000/svg" width="700" height="1050" version="1.1">
  <title>7.14.1 Пункт таможенного контроля</title>
  <rect style="fill:#ffffff;" x="0" y="0" width="700" height="1050" rx="45" ry="45"/>
  <rect style="fill:none;stroke:#000000;stroke-width:2;" x="1" y="1" width="698" height="1048" rx="44" ry="44"/>
  <path style="fill:#0d69e1;" d="m 655 1030 a 25 25 0 0 0 25 -25 v -960 a 25 25 0 0 0 -25 -25 h -610 a 25 25 0 0 0 -25 25 v 960 a 25 25 0 0 0 25 25 z m -544.38 -286.25 a 45 45 0 0 1 -45 -45 v -478.75 a 45 45 0 0 1 45 -45 h 478.75 a 45 45 0 0 1 45 45 v 478.75 a 45 45 0 0 1 -45 45 z"/>
  <path style="fill:#000000;" transform="scale(1.09375) translate(67.37 272.63) scale(0.78947368)" d="m 540 200 v -118 a 22 22 0 0 0 -22 -22 h -242 a 22 22 0 0 0 -22 22 v 118 z"/>
  <path style="fill:#000000;" transform="scale(1.09375) translate(67.37 272.63) scale(0.78947368) translate(-10 -178.4) scale(1.1)" d="m 100 368 a 20 20 0 0 0 20 20 h 18.05 a 42 42 0 0 1 41.95 -40 a 42 42 0 0 1 41.95 40 h 156.10 a 42 42 0 0 1 24.06 -36 h -174.11 v -78.91 a 20 20 0 0 0 -20 -20 h -57 a 20 20 0 0 0 -16.58 8.82 l -31 45.96 a 20 20 0 0 0 -3.42 11.18 z m 33.18 -54.91 a 10 10 0 0 1 -10 -10 a 10 10 0 0 1 1.71 -5.59 l 19.48 -28.88 a 8 8 0 0 1 6.63 -3.53 h 47 a 10 10 0 0 1 10 10 v 28 a 10 10 0 0 1 -10 10 z"/>
  <path style="fill:#000000;" transform="scale(1.09375) translate(67.37 272.63) scale(0.78947368) translate(-10 -178.4) scale(1.1)" d="m 500 388 v -36 h -62.11 a 42 42 0 0 1 24.06 36 z"/>
  <path style="fill:#000000;" transform="scale(1.09375) translate(67.37 272.63) scale(0.78947368) translate(-10 -178.4) scale(1.1)" d="m 180 424 a 34 34 0 0 0 34 -34 a 34 34 0 0 0 -34 -34 a 34 34 0 0 0 -34 34 a 34 34 0 0 0 34 34 z m 0 -16 a 18 18 0 0 1 -18 -18 a 18 18 0 0 1 18 -18 a 18 18 0 0 1 18 18 a 18 18 0 0 1 -18 18 z"/>
  <path style="fill:#000000;" transform="scale(1.09375) translate(67.37 272.63) scale(0.78947368) translate(-10 -178.4) scale(1.1)" d="m 420 424 a 34 34 0 0 0 34 -34 a 34 34 0 0 0 -34 -34 a 34 34 0 0 0 -34 34 a 34 34 0 0 0 34 34 z m 0 -16 a 18 18 0 0 1 -18 -18 a 18 18 0 0 1 18 -18 a 18 18 0 0 1 18 18 a 18 18 0 0 1 -18 18 z"/>
  <path style="fill:#ffffff;" transform="scale(1.09375)" d="m 86 742 v 8.70 h 15.95 v 49.30 h 10.15 v -49.30 h 15.95 v -8.70 z"/>
  <path style="fill:#ffffff;" transform="scale(1.09375)" d="m 150.23 757.95 c -7.25 0 -13.05 2.90 -16.67 5.07 l 4.35 7.04 c 2.17 -1.97 6.52 -4.87 10.87 -4.87 c 5.07 0 8.70 3.62 8.70 6.52 v 2.17 c -5.80 1.45 -24.65 0.83 -24.65 14.50 v 0 c 0 8.70 7.25 13.05 13.05 13.05 c 5.80 0 10.15 -3.62 11.60 -6.52 c 0.73 5.80 3.62 6.52 8.70 6.52 l 3.62 -7.25 c -1.45 0 -3.62 0 -3.62 -3.62 v -18.12 c 0 -7.25 -6.52 -14.50 -15.95 -14.50 z m 7.25 22.47 v 7.25 c 0 0.73 -5.07 6.52 -9.42 6.52 c -1.45 0 -5.80 -1.45 -5.80 -6.52 c 0 -6.52 11.60 -5.80 15.22 -7.25 z"/>
  <path style="fill:#ffffff;" transform="scale(1.09375)" d="m 173.85 800 h 8.70 l 2.17 -28.27 l 11.60 23.20 l 11.60 -23.20 l 2.17 28.27 h 8.70 l -3.62 -40.60 h -8.70 l -10.15 20.30 l -10.15 -20.30 h -8.70 z"/>
  <path style="fill:#ffffff;" transform="scale(1.09375)" d="m 243.88 757.95 c -10.87 0 -18.85 8.70 -18.85 21.75 c 0 13.05 7.97 21.75 18.85 21.75 c 10.87 0 18.85 -8.70 18.85 -21.75 c 0 -13.05 -7.97 -21.75 -18.85 -21.75 z m 0 7.25 c 5.80 0 10.15 5.80 10.15 14.50 c 0 8.70 -4.35 14.50 -10.15 14.50 c -5.80 0 -10.15 -5.80 -10.15 -14.50 c 0 -8.70 4.35 -14.50 10.15 -14.50 z"/>
  <path style="fill:#ffffff;" transform="scale(1.09375)" d="m 267.98 800 h 10.15 c 5.49 -8.39 7.66 -18.23 15.12 -18.23 c 0.52 0 1.04 0 1.55 0.10 v 18.12 h 8.70 v -18.12 c 0.52 -0.10 1.04 -0.10 1.55 -0.10 c 7.46 0 9.63 9.84 15.12 18.23 h 10.15 c -1.45 -2.17 -5.07 -7.97 -6.52 -11.60 c -2.28 -5.80 -5.90 -10.46 -11.60 -10.87 c 5.39 -1.24 7.25 -10.15 15.22 -10.15 l -2.17 -8.70 c -11.08 0.73 -14.91 16.05 -20.92 16.05 c -0.31 0 -0.52 0 -0.83 -0.10 v -15.22 h -8.70 v 15.22 c -0.31 0.10 -0.52 0.10 -0.83 0.10 c -6.01 0 -9.84 -15.33 -20.92 -16.05 l -2.17 8.70 c 7.97 0 9.84 8.91 15.22 10.15 c -5.70 0.41 -9.32 5.07 -11.60 10.87 c -1.45 3.62 -5.07 9.42 -6.52 11.60 z"/>
  <path style="fill:#ffffff;" transform="scale(1.09375)" d="m 351.91 765.20 c 4.35 0 9.42 4.45 9.42 8.70 c 0 0.73 -0.21 1.45 -0.72 1.45 h -18.12 c 0 -5.80 5.07 -10.15 9.42 -10.15 z m 16.67 17.40 c 1.24 0 2.17 -2.17 2.17 -4.35 c 0 -10.87 -8.70 -20.30 -18.85 -20.30 c -5.49 0 -11.39 2.90 -14.91 7.25 c -3 3.62 -4.14 8.39 -4.14 14.91 c 0 12.84 9.01 21.34 19.78 21.34 c 5.07 0 12.32 -2.17 16.67 -9.42 l -7.25 -4.04 c -2.90 3.62 -5.07 5.49 -8.70 5.49 c -3.62 0 -10.87 -2.17 -10.87 -10.87 z"/>
  <path style="fill:#ffffff;" transform="scale(1.09375)" d="m 377.83 800 h 8.70 v -17.40 h 15.22 v 17.40 h 8.70 v -40.60 h -8.70 v 15.22 h -15.22 v -15.22 h -8.70 z"/>
  <path style="fill:#ffffff;" transform="scale(1.09375)" d="m 419.71 800 h 8.70 v -17.40 h 15.22 v 17.40 h 8.70 v -40.60 h -8.70 v 15.22 h -15.22 v -15.22 h -8.70 z"/>
  <path style="fill:#ffffff;" transform="scale(1.09375)" d="m 501.25 800 h 8.70 v -40.60 h -8.70 z m -38.94 0 h 18.85 c 10.15 0 14.19 -6.52 14.19 -13.05 c 0 -6.52 -4.04 -13.05 -14.19 -13.05 h -10.15 v -14.50 h -8.70 z m 8.70 -7.97 v -10.15 h 10.87 c 2.90 0 5.07 2.69 5.07 5.07 c 0 2.38 -2.17 5.07 -5.07 5.07 z"/>
  <path style="fill:#ffffff;" transform="scale(1.09375)" d="m 519.20 800 h 9.42 l 16.67 -27.55 v 27.55 h 8.70 v -40.60 h -9.42 l -16.67 27.55 v -27.55 h -8.70 z m 2.90 -58 c 0 0 1.45 11.60 14.50 11.60 c 13.05 0 14.50 -11.60 14.50 -11.60 h -7.25 c -1.45 3.62 -3.62 5.80 -7.25 5.80 c -3.62 0 -6.52 -2.17 -7.25 -5.80 z"/>
  <path style="fill:#ffffff;" transform="scale(1.09375)" d="m 146.54 880 h 8.70 v -18.85 c 0.73 -0.10 1.55 -0.21 2.17 -0.21 c 8.39 0 10.56 10.77 15.95 19.06 h 10.87 c -7.66 -7.15 -9.01 -21.13 -18.85 -23.20 c 5.39 -1.24 7.66 -10.36 14.50 -10.87 l -2.17 -7.25 c -9.11 0.73 -14.91 15.33 -21.44 15.33 c -0.31 0 -0.72 0 -1.04 -0.10 v -14.50 h -8.70 z"/>
  <path style="fill:#ffffff;" transform="scale(1.09375)" d="m 209.42 837.95 c -10.87 0 -18.85 8.70 -18.85 21.75 c 0 13.05 7.97 21.75 18.85 21.75 c 10.87 0 18.85 -8.70 18.85 -21.75 c 0 -13.05 -7.97 -21.75 -18.85 -21.75 z m 0 7.25 c 5.80 0 10.15 5.80 10.15 14.50 c 0 8.70 -4.35 14.50 -10.15 14.50 c -5.80 0 -10.15 -5.80 -10.15 -14.50 c 0 -8.70 4.35 -14.50 10.15 -14.50 z"/>
  <path style="fill:#ffffff;" transform="scale(1.09375)" d="m 238.94 880 h 8.70 v -17.40 h 15.22 v 17.40 h 8.70 v -40.60 h -8.70 v 15.22 h -15.22 v -15.22 h -8.70 z"/>
  <path style="fill:#ffffff;" transform="scale(1.09375)" d="m 280.17 847.38 h 12.22 v 32.62 h 8.70 v -32.62 h 12.12 v -7.97 h -33.04 z"/>
  <path style="fill:#ffffff;" transform="scale(1.09375)" d="m 339.94 837.95 c -7.25 0 -10.15 5.80 -10.15 5.80 c -0.62 -1.14 -1.14 -2.59 -1.45 -4.35 h -7.25 v 58 h 8.70 v -21.02 c 0 0.72 4.35 5.07 10.15 5.07 c 4.35 0 18.12 -3.62 18.12 -21.75 c 0 -17.40 -10.87 -21.75 -18.12 -21.75 z m 0 7.97 c 5.07 0 9.42 5.07 9.42 13.77 c 0 8.70 -4.35 14.50 -9.42 14.50 c -3.73 0 -7.97 -2.17 -10.15 -5.80 v -15.22 c 2.17 -4.35 6.01 -7.25 10.15 -7.25 z"/>
  <path style="fill:#ffffff;" transform="scale(1.09375)" d="m 383.97 837.95 c -10.87 0 -18.85 8.70 -18.85 21.75 c 0 13.05 7.97 21.75 18.85 21.75 c 10.87 0 18.85 -8.70 18.85 -21.75 c 0 -13.05 -7.97 -21.75 -18.85 -21.75 z m 0 7.25 c 5.80 0 10.15 5.80 10.15 14.50 c 0 8.70 -4.35 14.50 -10.15 14.50 c -5.80 0 -10.15 -5.80 -10.15 -14.50 c 0 -8.70 4.35 -14.50 10.15 -14.50 z"/>
  <path style="fill:#ffffff;" transform="scale(1.09375)" d="m 408.93 873.16 l 1.66 8.29 c 18.12 -4.35 15.22 -21.02 15.95 -34.07 h 11.60 v 32.62 h 8.70 v -40.60 h -28.27 c 0 7.97 -0.52 25.06 -2.28 28.27 c -1.76 3.31 -4.97 5.07 -7.35 5.49 z"/>
  <path style="fill:#ffffff;" transform="scale(1.09375)" d="m 460.41 880 h 18.85 c 10.15 0 14.19 -6.52 14.19 -13.05 c 0 -6.52 -4.04 -13.05 -14.19 -13.05 h -10.15 v -14.50 h -8.70 z m 8.70 -7.97 v -10.15 h 10.87 c 2.90 0 5.07 2.69 5.07 5.07 c 0 2.38 -2.17 5.07 -5.07 5.07 z"/>
</svg>
