<?xml version="1.0" encoding="UTF-8" standalone="no"?>
<svg xmlns="http://www.w3.org/2000/svg" width="700" height="350" version="1.1">
  <title>8.4.1 Вид транспортного средства</title>
  <rect style="fill:#000000;" x="0" y="0" width="700" height="350" rx="45" ry="45"/>
  <rect style="fill:#ffffff;" x="10" y="10" width="680" height="330" rx="35" ry="35"/>
  <path style="fill:#000000;" transform="scale(1.0937500000)" d="m 540 200 v -118 a 22 22 0 0 0 -22 -22 h -242 a 22 22 0 0 0 -22 22 v 118 z"/>
  <path style="fill:#000000;" transform="scale(1.0937500000) translate(-10 -178.40) scale(1.1000000000)" d="m 100 368 a 20 20 0 0 0 20 20 h 18.05 a 42 42 0 0 1 41.95 -40 a 42 42 0 0 1 41.95 40 h 156.10 a 42 42 0 0 1 24.06 -36 h -174.11 v -78.91 a 20 20 0 0 0 -20 -20 h -57 a 20 20 0 0 0 -16.58 8.82 l -31 45.96 a 20 20 0 0 0 -3.42 11.18 z m 33.18 -54.91 a 10 10 0 0 1 -10 -10 a 10 10 0 0 1 1.71 -5.59 l 19.48 -28.88 a 8 8 0 0 1 6.63 -3.53 h 47 a 10 10 0 0 1 10 10 v 28 a 10 10 0 0 1 -10 10 z"/>
  <path style="fill:#000000;" transform="scale(1.0937500000) translate(-10 -178.40) scale(1.1000000000)" d="m 500 388 v -36 h -62.11 a 42 42 0 0 1 24.06 36 z"/>
  <path style="fill:#000000;" transform="scale(1.0937500000) translate(-10 -178.40) scale(1.1000000000)" d="m 180 424 a 34 34 0 0 0 34 -34 a 34 34 0 0 0 -34 -34 a 34 34 0 0 0 -34 34 a 34 34 0 0 0 34 34 z m 0 -16 a 18 18 0 0 1 -18 -18 a 18 18 0 0 1 18 -18 a 18 18 0 0 1 18 18 a 18 18 0 0 1 -18 18 z"/>
  <path style="fill:#000000;" transform="scale(1.0937500000) translate(-10 -178.40) scale(1.1000000000)" d="m 420 424 a 34 34 0 0 0 34 -34 a 34 34 0 0 0 -34 -34 a 34 34 0 0 0 -34 34 a 34 34 0 0 0 34 34 z m 0 -16 a 18 18 0 0 1 -18 -18 a 18 18 0 0 1 18 -18 a 18 18 0 0 1 18 18 a 18 18 0 0 1 -18 18 z"/>
</svg>
