<?xml version="1.0" encoding="UTF-8"?>
<svg xmlns="http://www.w3.org/2000/svg" width="600" height="300" viewBox="0 0 600 300">
<title>8.15.1 Глухие пешеходы</title>
<rect width="600" height="300" rx="45" ry="45"/>
<rect x="10" y="10" width="580" height="280" rx="35" ry="35" style="fill: #fff;"/>
<g>
  <polygon points="91.114 192.75 76.187 192.75 76.187 107.25 129.586 107.25 129.586 120.084 91.114 120.084 91.114 192.75" style="fill-rule: evenodd;"/>
  <path d="M200.119,192.519v-72.497h-23.422l-2.108,46.905c-.123,1.985-.447,3.847-.97,5.617-.538,1.77-1.246,3.432-2.139,4.986-.892,1.554-1.939,3.016-3.108,4.37-1.185,1.339-2.447,2.57-3.817,3.694-1.369,1.123-2.8,2.139-4.309,3.047-1.492.923-3.016,1.708-4.524,2.37-1.523.661-3.047,1.231-4.57,1.677-1.508.462-2.955.785-4.325.969l-3.139-13.326c.954-.154,1.893-.37,2.816-.662.939-.277,1.847-.631,2.739-1.046.893-.431,1.755-.893,2.57-1.432.816-.538,1.57-1.108,2.278-1.708.708-.615,1.354-1.262,1.97-1.939.6-.677,1.123-1.385,1.569-2.108.431-.723.77-1.462,1.016-2.231.246-.754.4-1.508.431-2.278l2.678-59.677h53.291v85.269h-14.927Z" style="fill-rule: evenodd;"/>
  <path d="M238.388,192.75l-2.216-14.989c1.477.723,2.754,1.308,3.816,1.77.754.338,1.862.507,3.309.507,4.216,0,7.217-1.154,9.002-3.477.985-1.324,1.478-2.663,1.478-3.986,0-.646-.124-1.308-.401-2.001l-27.807-63.324h17.097l19.267,48.059,17.035-48.059h17.097l-27.808,72.727c-3.154,8.017-9.987,12.219-20.513,12.603-3.078.108-6.201.17-9.356.17h0Z" style="fill-rule: evenodd;"/>
  <polygon points="306.674 107.25 323.894 107.25 338.759 133.98 353.763 107.25 370.86 107.25 347.315 148.122 372.907 192.75 355.81 192.75 338.759 161.741 321.662 192.75 304.627 192.75 330.218 148.122 306.674 107.25" style="fill-rule: evenodd;"/>
  <polygon points="389.801 192.75 389.801 107.25 402.62 107.25 402.62 167.096 434.644 107.25 449.648 107.25 449.648 192.75 436.814 192.75 436.814 132.903 404.728 192.75 389.801 192.75" style="fill-rule: evenodd;"/>
  <polygon points="472.522 107.25 523.812 107.25 523.812 120.084 485.34 120.084 485.34 141.459 517.441 141.459 517.441 154.278 485.34 154.278 485.34 179.931 523.812 179.931 523.812 192.75 472.522 192.75 472.522 107.25" style="fill-rule: evenodd;"/>
</g>
</svg>