<svg xmlns="http://www.w3.org/2000/svg" width="600" height="300">
<title>8.26 Зарядка электромобилей</title>
<rect width="600" height="300" rx="45"/><rect x="10" y="10" width="580" height="280" rx="35" style="fill:#fff"/><path d="M445 126.5v47h52a10 10 0 0 1 10 10 10 10 0 0 1-10 10h-52V212h-72l-37-35v17h-20v-34c-25.57.27-39.62-10.96-51.98-20.86C252.53 129.94 242.61 122 223 122c-24.89 0-39.14 16.97-55.64 36.63C149.9 179.43 130.11 203 95 203v-20c25.78 0 40.27-17.25 57.04-37.23C169.27 125.25 188.79 102 223 102c26.63 0 40.92 11.44 53.52 21.53 11.18 8.95 20.91 16.71 39.48 16.47v-34h20v17l37-35h72v18.5h52a10 10 0 0 1 10 10 10 10 0 0 1-10 10z"/></svg>